<?xml version="1.0" encoding="UTF-8"?>
<svg id="Capa_2" data-name="Capa 2" xmlns="http://www.w3.org/2000/svg" xmlns:xlink="http://www.w3.org/1999/xlink" viewBox="0 0 133.25 130.96">
  <defs>
    <style>
      .cls-1 {
        fill: #e76041;
      }

      .cls-2 {
        fill: #5d3d76;
      }

      .cls-3 {
        fill: #a04aa7;
      }

      .cls-4 {
        fill: #ba3640;
      }

      .cls-5 {
        fill: #e7439a;
      }

      .cls-6 {
        clip-path: url(#clippath);
      }
    </style>
    <clipPath id="clippath">
      <circle class="cls-1" cx="66.68" cy="70.82" r="24.97"/>
    </clipPath>
  </defs>
  <g id="Person_Graphic">
    <g id="Flower">
      <path class="cls-3" d="M64.62,0c-13.77,0-36.59,42.84,2.53,68.9C103.73,39.23,83.37,0,71.7.82c0,0,3.55,10.62-3.9,19.43-7-9.04-3.18-20.25-3.18-20.25Z"/>
      <path class="cls-3" d="M131.43,48.04c-4.25-13.09-52.05-21.56-64.75,23.7,39.53,25.61,70.54-5.87,66.16-16.72,0,0-9,6.66-19.69,2.29,6.43-9.45,18.27-9.28,18.27-9.28Z"/>
      <path class="cls-3" d="M109.52,125.9c11.14-8.09,4.42-56.17-42.55-54.25-12.14,45.5,27.38,65.28,36.34,57.76,0,0-9.12-6.5-8.26-18.01,10.98,3.19,14.47,14.51,14.47,14.51Z"/>
      <path class="cls-3" d="M27.99,129.04c11.14,8.09,54.78-13.15,38.45-57.23-47.03,2.52-53.62,46.21-43.7,52.41,0,0,3.37-10.68,14.58-13.43.35,11.43-9.33,18.25-9.33,18.25Z"/>
      <path class="cls-3" d="M.36,52.05c-4.25,13.09,29.44,48.04,66.31,18.88C49.75,26.98,6.16,34.22,3.33,45.57c0,0,11.2-.1,17.27,9.72-10.76,3.87-20.24-3.23-20.24-3.23Z"/>
      <path class="cls-2" d="M50.16,119.28c2.3-4.27,4.67-8.25,7.41-12.18,2.59-3.98,6.85-6.78,9.4-10.82,0,0,.97-1.48.97-1.48l.65,1.64c1.27,3.43,3.52,6.37,6.04,8.97,2.33,2.65,4.7,5.28,7.31,7.63,4.41,4.29,11.14,10.51,15.82,14.69,0,0-.23.56-.23.56-7.72-.97-14.89-5.13-20.14-10.81-2.56-2.93-4.91-6.08-6.5-9.65-1.18-2.64-2-5.41-2.96-8.12-.32-.89-.66-1.76-1.04-2.62l1.62.16c-1.93,3.05-2.89,6.77-4.6,9.98-1.8,3.23-4.27,5.98-7,8.48-1.88,1.62-3.89,3.17-6.39,4.07l-.36-.48h0Z"/>
      <path class="cls-2" d="M79.39,15.36c4.94,5.87,5.74,14.44,5.07,21.78-.4,3.73-1.81,7.3-2.9,10.85-1.18,3.51-2.01,7.05-2.65,10.69,0,0-2-1.08-2-1.08,2.57-3.58,5.44-7.23,9.19-9.92,9.28-6.93,21.83-8.79,32.75-5.11,2.14.69,4.21,1.58,6.13,2.79l-.2.57c-16.45-.97-33.5,1.99-46.11,13.2,0,0-3.68,3.45-3.68,3.45l1.68-4.53c1.28-3.39,2.19-6.91,2.46-10.53.19-5.36-.17-10.7.28-16.03.15-5.31.33-10.47-.54-15.83,0,0,.51-.31.51-.31h0Z"/>
      <path class="cls-2" d="M22.14,113.45c-.91-7.32,1.81-15.25,6.8-20.6,2.67-2.65,5.71-4.77,8.39-7.15,2.67-2.41,5.32-4.87,8.2-7.28l.73,3.87c-3.2.04-6.38-.34-9.53-.89-7.95-1.28-15.69-4.81-21.48-10.5-1.15-1.16-2.23-2.39-3.07-3.84l.42-.42c13.07,5.83,26.46,8.82,39.83,13.45,0,0-4.88,1.97-4.88,1.97-3.19,1.22-6.52,2.63-9.02,5.01-2.66,2.25-4.34,5.43-5.81,8.52-3.31,6.14-6.66,11.67-9.98,17.96,0,0-.59-.08-.59-.08h0Z"/>
      <path class="cls-5" d="M74.93,70.82h-16.29s3.65-36.93,8.15-36.93,8.15,36.93,8.15,36.93Z"/>
      <path class="cls-5" d="M68.48,77.87l-5.19-15.45s36.16-8.3,37.6-4.04-32.41,19.48-32.41,19.48Z"/>
      <path class="cls-5" d="M68.77,64.54l-5.17,15.45s-33.86-15.18-32.43-19.44c1.43-4.27,37.6,3.99,37.6,3.99Z"/>
      <path class="cls-5" d="M59.48,66.01l13.22,9.53s-24.55,27.82-28.2,25.19,14.98-34.72,14.98-34.72Z"/>
      <path class="cls-5" d="M60.61,75.87l13.23-9.51s18.59,32.11,14.94,34.74-28.17-25.22-28.17-25.22Z"/>
      <g>
        <circle class="cls-1" cx="66.68" cy="70.82" r="24.97"/>
        <g class="cls-6">
          <path class="cls-4" d="M65.01,41.8c-.98,3-2.24,6.24-3.42,9.17-.78,1.77-1.83,4.22-2.41,6.04-1.28,3.23-3.93,5.58-7.18,6.97,0,0-.52-.3-.52-.3-.33-2.5.11-4.69.92-6.91.72-2.09,2.47-3.53,3.77-5.24,0,0,1.98-2.57,1.98-2.57,2-2.46,4.19-5.14,6.34-7.46,0,0,.52.3.52.3h0Z"/>
          <path class="cls-4" d="M75.01,50.95c-.18,1.89-.56,3.88-.94,5.73-.29,1.11-.67,2.61-.77,3.75-.4,2.22-2.77,3.39-4.85,3.79,0,0-.54-.27-.54-.27-.94-1.9-1.45-4.49.07-6.16.84-.77,1.81-1.99,2.51-2.89,1.24-1.42,2.59-2.93,3.98-4.23,0,0,.54.27.54.27h0Z"/>
          <path class="cls-4" d="M64.58,68.47c-.2,2.08-.94,3.66-2.12,5.16-1.02,1.37-2.77,1.77-4.18,2.58-2.82,1.61-5.93,3.2-8.92,4.46,0,0-.38-.47-.38-.47.97-1.39,2.02-2.68,3.05-3.99.78-.96,2.4-2.84,3.24-3.75,1.1-1.2,1.87-2.82,3.43-3.52,1.72-.82,3.42-1.2,5.49-.94,0,0,.38.47.38.47h0Z"/>
          <path class="cls-4" d="M86.5,53.42c-.51,2.09-1.24,4.29-1.94,6.32-.49,1.21-1.13,2.87-1.43,4.13-.83,2.39-3.14,3.58-5.65,4.01,0,0-.51-.32-.51-.32-.71-2.44-.67-5.04,1.12-6.84,1-.82,2.21-2.14,3.08-3.1,1.51-1.52,3.16-3.15,4.82-4.53,0,0,.51.32.51.32h0Z"/>
          <path class="cls-4" d="M73.7,74.19c-.41,1.7-1.02,3.46-1.62,5.09-.42.97-.97,2.27-1.2,3.3-.69,2.02-3.18,2.56-5.14,2.51,0,0-.48-.35-.48-.35-.64-1.86-.88-4.39.83-5.66.9-.54,1.99-1.46,2.78-2.15,1.38-1.06,2.86-2.18,4.36-3.09,0,0,.48.35.48.35h0Z"/>
          <path class="cls-4" d="M61.09,87.8c.25,1.86-.04,3.32-.81,4.81-.63,1.31-2.13,1.75-3.22,2.55-2.21,1.61-4.67,3.2-7.09,4.49,0,0-.44-.41-.44-.41.58-1.31,1.24-2.54,1.9-3.78.49-.91,1.56-2.71,2.12-3.58.73-1.14,1.08-2.66,2.34-3.37,1.44-.86,2.88-1.25,4.75-1.12,0,0,.44.41.44.41h0Z"/>
          <path class="cls-4" d="M86.96,76.15c.25,1.48.06,3.1-.65,4.35-.56,1.14-1.94,1.36-2.92,1.96-2.03,1.23-4.26,2.39-6.47,3.28,0,0-.41-.43-.41-.43.51-1.14,1.1-2.2,1.68-3.27.44-.78,1.38-2.31,1.89-3.05.65-.96.93-2.32,2.1-2.83,1.28-.65,2.9-.76,4.38-.45l.41.43h0Z"/>
          <path class="cls-4" d="M69.94,89.88c.86,1.3,1.35,2.91,1.22,4.4-.04,1.34-1.21,2.19-1.86,3.23-1.34,2.11-2.92,4.26-4.57,6.15,0,0-.56-.21-.56-.21,0-1.32.09-2.59.18-3.87.08-.95.3-2.83.46-3.77.2-1.21-.11-2.63.74-3.66.89-1.2,2.32-2.08,3.83-2.49l.56.21h0Z"/>
          <path class="cls-4" d="M47.91,69.99c-.72,2.31-1.69,4.75-2.6,6.99-.61,1.34-1.43,3.18-1.86,4.58-1.04,2.57-3.49,4-6.24,4.58,0,0-.5-.33-.5-.33-.54-2.75-.18-5.57,1.78-7.53,1.11-.93,2.5-2.42,3.49-3.5,1.71-1.71,3.57-3.55,5.42-5.12,0,0,.5.33.5.33h0Z"/>
        </g>
      </g>
    </g>
  </g>
</svg>