<?xml version="1.0" encoding="UTF-8"?>
<svg id="Capa_2" data-name="Capa 2" xmlns="http://www.w3.org/2000/svg" xmlns:xlink="http://www.w3.org/1999/xlink" viewBox="0 0 441.56 444.91">
  <defs>
    <style>
      .cls-1 {
        fill: #a6d0e6;
      }

      .cls-2 {
        fill: #5cb8e6;
      }

      .cls-3 {
        fill: #82c9ed;
      }

      .cls-4 {
        clip-path: url(#clippath);
      }
    </style>
    <clipPath id="clippath">
      <path id="BG-2" data-name="BG" class="cls-1" d="M415.25,223.8c-47.19,64.5-.17,84.2-24.28,164.17-4.65,15.41-14.57,27.6-28.33,36.68-56.12,37.06-175.97,22.35-260.71-36.4-2.25-1.56-4.48-3.15-6.68-4.77-105.31-77.66,15.1-143.68-56.44-193.67C-32.73,139.83,1.85,22.76,83.9,4.27c104.33-23.52,91.78,59.17,184.23,31.25,87.79-26.51,233.27,70.55,147.13,188.28Z"/>
    </clipPath>
  </defs>
  <g id="Person_Graphic">
    <g id="SKY">
      <path id="BG" class="cls-1" d="M415.25,223.8c-47.19,64.5-.17,84.2-24.28,164.17-4.65,15.41-14.57,27.6-28.33,36.68-56.12,37.06-175.97,22.35-260.71-36.4-2.25-1.56-4.48-3.15-6.68-4.77-105.31-77.66,15.1-143.68-56.44-193.67C-32.73,139.83,1.85,22.76,83.9,4.27c104.33-23.52,91.78,59.17,184.23,31.25,87.79-26.51,233.27,70.55,147.13,188.28Z"/>
      <g class="cls-4">
        <polygon id="bg2" class="cls-3" points="482.8 169.33 301.6 231.29 136.06 166.38 0 217.3 -52.11 500.51 501.6 500.51 482.8 169.33"/>
        <polygon id="bg1" class="cls-2" points="505.5 367.43 349.52 311.29 147 356.9 0 297.3 -52.11 580.51 501.6 580.51 505.5 367.43"/>
      </g>
    </g>
  </g>
</svg>