<?xml version="1.0" encoding="UTF-8"?>
<svg id="Capa_2" data-name="Capa 2" xmlns="http://www.w3.org/2000/svg" xmlns:xlink="http://www.w3.org/1999/xlink" viewBox="0 0 310.64 260.71">
  <defs>
    <style>
      .cls-1 {
        clip-path: url(#clippath-6);
      }

      .cls-2 {
        clip-path: url(#clippath-4);
      }

      .cls-3 {
        fill: #51e889;
      }

      .cls-4 {
        clip-path: url(#clippath-1);
      }

      .cls-5 {
        clip-path: url(#clippath-5);
      }

      .cls-6 {
        clip-path: url(#clippath-3);
      }

      .cls-7 {
        fill: #37ce57;
      }

      .cls-8 {
        clip-path: url(#clippath-2);
      }

      .cls-9 {
        fill: #1ba324;
      }

      .cls-10 {
        fill: #1a8e0e;
      }
    </style>
    <clipPath id="clippath-1">
      <path class="cls-9" d="M310.64,260.71c-52.34,0-249.2-1.71-310.64-1.14,73.96-180.92,233.84-131.43,310.64,1.14Z"/>
    </clipPath>
    <clipPath id="clippath-2">
      <polygon class="cls-7" points="60.07 68.28 71.75 78.23 89.28 76.5 90.58 103.67 56.96 94.49 46.44 81.69 56.62 55.15 71.54 63.95 60.07 68.28"/>
    </clipPath>
    <clipPath id="clippath-3">
      <path class="cls-7" d="M227.11,65.58l-11.68,9.95-17.52-1.73-4.11,29.42,35.16-10.6s8.56-7.8,11.79-13.63l-10.13-25.92-14.97,8.18,11.47,4.33Z"/>
    </clipPath>
    <clipPath id="clippath-4">
      <polygon class="cls-9" points="90.46 99.78 57.2 15.14 96.33 72.78 95.55 21.82 109.24 70.04 126.91 0 123.33 83.74 139.37 41.87 138.98 81.39 156.98 11.35 150.38 88.43 173.86 33.68 159.33 97.43 209.9 5.87 178.89 86.76 218.14 47.35 191.02 103.72 190.24 123.65 90.07 119.81 90.46 99.78"/>
    </clipPath>
    <clipPath id="clippath-5">
      <polygon class="cls-3" points="18.96 98.9 33.42 118.61 65.86 96.99 94.74 88.77 109.36 104.32 135.47 102.63 145.35 121.91 100.74 143.04 54.36 149.77 24.04 132.09 18.96 98.9"/>
    </clipPath>
    <clipPath id="clippath-6">
      <polygon class="cls-3" points="270.75 98.9 256.29 118.61 219.08 98.88 192.61 91.89 180.35 104.32 153.79 105.23 144.36 121.91 189.14 144.92 234.49 150.66 265.75 132.04 270.75 98.9"/>
    </clipPath>
  </defs>
  <g id="Person_Graphic">
    <g id="vegetation">
      <g id="base_plant">
        <path class="cls-10" d="M93.39,125.61s11.35,23.35,48.14,26.15,60.4-23.81,60.4-23.81l-50.84-6.05-57.7,3.7Z"/>
      </g>
      <g id="earth">
        <path class="cls-9" d="M310.64,260.71c-52.34,0-249.2-1.71-310.64-1.14,73.96-180.92,233.84-131.43,310.64,1.14Z"/>
        <g class="cls-4">
          <polygon class="cls-10" points="-48.73 211.43 107.82 170.61 319.18 223.73 332.83 277.78 -15.36 282.33 -48.73 211.43"/>
          <polygon class="cls-7" points="93.34 128.35 139.12 158.87 239.29 162.39 227.56 114.65 93.34 128.35"/>
        </g>
      </g>
      <g id="Leaf_group">
        <g id="leafMin01">
          <polygon class="cls-7" points="60.07 68.28 71.75 78.23 89.28 76.5 90.58 103.67 56.96 94.49 46.44 81.69 56.62 55.15 71.54 63.95 60.07 68.28"/>
          <g class="cls-8">
            <path class="cls-10" d="M32.38,99.22c.43-.65,27.69-30.94,27.69-30.94l22.28-3.46-12.44-21.2-49.87,11.52,12.33,44.08Z"/>
            <path class="cls-10" d="M53.35,80.78c3.31,1.54,6.03,4.14,7.77,7.3,0,0-1.56-1.06-1.56-1.06,1.32.52,2.54,1.45,3.81,2.17,1.27.74,2.61,1.12,4.01,1.29h-.48c1.94-.73,3.68-2.18,5.57-3.1,1.9-.85,3.82-1.67,5.79-2.3,4.15-1.14,8.36-1.4,12.72-.44,0,0,.16.58.16.58-4.81,4.54-10.94,6.52-17.35,7.01-2.22.17-4.56-.24-6.72.2-2.93-1.31-6.21-.13-9.24-.4-2.32-2.13-3.73-5.03-4.56-8.05-.22-.9-.41-1.82-.42-2.86l.5-.34h0Z"/>
          </g>
        </g>
        <g id="LeafMin02">
          <path class="cls-7" d="M227.11,65.58l-11.68,9.95-17.52-1.73-4.11,29.42,35.16-10.6s8.56-7.8,11.79-13.63l-10.13-25.92-14.97,8.18,11.47,4.33Z"/>
          <g class="cls-6">
            <path class="cls-10" d="M254.8,96.51c-.43-.65-27.69-30.94-27.69-30.94l-22.28-3.46,12.44-21.2,49.87,11.52-12.33,44.08Z"/>
            <path class="cls-10" d="M233.62,79.09c-1.76,4.19-4.85,7.87-9.21,9.31-1.6.53-3.12,1.1-4.37,2.11-3.51-.76-7.07.74-10.59.49-5.83.15-11.41-1.3-16.31-4.71,0,0,.08-.59.08-.59,7.85-2.89,16.13-1.31,23.43,2.17,1.07.41,2.17.68,3.28.79l-.68.19c2.23-1.81,3.24-5.18,5.71-6.75,1.17-.84,2.43-1.58,3.79-2.19,1.37-.59,2.81-1.09,4.5-1.28l.37.47h0Z"/>
          </g>
        </g>
        <g id="Arbust">
          <polygon class="cls-9" points="90.46 99.78 57.2 15.14 96.33 72.78 95.55 21.82 109.24 70.04 126.91 0 123.33 83.74 139.37 41.87 138.98 81.39 156.98 11.35 150.38 88.43 173.86 33.68 159.33 97.43 209.9 5.87 178.89 86.76 218.14 47.35 191.02 103.72 190.24 123.65 90.07 119.81 90.46 99.78"/>
          <g class="cls-2">
            <polygon class="cls-3" points="45.21 2.35 99.77 86.06 99.49 43.68 109.38 83.74 122.29 35.61 121.12 93.52 135.6 64.57 137.95 92.74 150.86 47.35 148.51 95.87 164.16 66.52 153.6 112.3 189.99 50.48 174.34 93.13 218.95 61.43 247.12 34.83 236.16 -1.57 184.51 -30.13 115.64 -22.3 80.43 -21.52 45.21 2.35"/>
            <path class="cls-10" d="M104.66,82.98c1.07,3.72,2.04,7.88,2.91,11.67.47,2.32,1.13,5.55,1.79,7.8.93,4.07.36,8.28-1.43,12.12,0,0-.6.06-.6.06-1.83-2.33-2.81-4.88-3.5-7.62-.7-2.61-.2-5.31-.22-7.96,0,0,0-3.99,0-3.99.08-3.89.18-8.15.46-12.02,0,0,.6-.06.6-.06h0Z"/>
            <path class="cls-10" d="M131.88,87c-.07,3.29-.36,6.9-.64,10.19-.24,2-.54,4.77-.58,6.76-.3,3.59-2.15,6.77-4.89,9.2,0,0-.58-.14-.58-.14-1.04-2.38-1.25-4.7-1.1-7.15.09-2.3,1.36-4.29,2.11-6.4,0,0,1.16-3.18,1.16-3.18,1.21-3.07,2.54-6.43,3.94-9.42,0,0,.58.14.58.14h0Z"/>
            <path class="cls-10" d="M152.33,97.32c-.82,2.84-1.92,5.89-2.93,8.67-.68,1.67-1.6,3.99-2.09,5.71-1.12,3.08-3.65,5.27-6.74,6.53,0,0-.52-.29-.52-.29-.44-2.36-.12-4.43.59-6.55.61-1.97,2.27-3.33,3.46-4.93,0,0,1.82-2.42,1.82-2.42,1.85-2.32,3.88-4.83,5.89-7.01,0,0,.52.29.52.29h0Z"/>
            <path class="cls-10" d="M190.17,88.9c-4.7,5.4-10.04,11.12-15.05,16.27-2.56,2.64-4.78,5.66-7.82,7.8-3.09,2.23-6.28,4.17-10.02,5.34,0,0-.4-.45-.4-.45,2.42-5.18,6.02-9.63,10.56-13.02,2.66-1.82,6.3-4.63,8.87-6.63,4.31-3.21,9.05-6.73,13.47-9.76,0,0,.4.45.4.45h0Z"/>
          </g>
        </g>
        <g id="LeafBig01">
          <polygon class="cls-3" points="18.96 98.9 33.42 118.61 65.86 96.99 94.74 88.77 109.36 104.32 135.47 102.63 145.35 121.91 100.74 143.04 54.36 149.77 24.04 132.09 18.96 98.9"/>
          <g class="cls-5">
            <path class="cls-10" d="M67.14,130.98c9.24-14.6,24.56-24.35,40.64-29.99,8.17-2.83,17.08-3.32,25.61-2.15,1.7.28,3.4.62,5.07,1.07v.6c-1.7.46-3.36.73-5.01,1.07-3.82.75-8.39,1.67-12.15,2.46-1.49.35-10.19,2.28-11.88,2.66-9.61,1.99-18.7,6.14-26.89,11.53-5.49,3.63-10.64,7.95-14.87,13.08l-.5-.33h0Z"/>
            <polygon class="cls-10" points="13.81 90.85 43.45 131.4 112.16 143.48 44.05 175.89 -5.64 105.31 13.81 90.85"/>
          </g>
        </g>
        <g id="LeafBig02">
          <polygon class="cls-3" points="270.75 98.9 256.29 118.61 219.08 98.88 192.61 91.89 180.35 104.32 153.79 105.23 144.36 121.91 189.14 144.92 234.49 150.66 265.75 132.04 270.75 98.9"/>
          <g class="cls-1">
            <path class="cls-10" d="M222.07,131.3c-10.67-12.47-25.83-21.07-41.76-24.6-1.73-.39-10.34-2.29-11.88-2.66-3.75-.79-8.36-1.72-12.15-2.46-1.65-.34-3.31-.62-4.99-1.07v-.6c1.66-.45,3.35-.78,5.05-1.07,8.52-1.18,17.44-.68,25.61,2.15,9.74,3.46,19.09,8.22,27.06,14.83,5.2,4.41,10.02,9.32,13.58,15.16,0,0-.5.33-.5.33h0Z"/>
            <polygon class="cls-10" points="274.92 91.19 246.16 132.61 180.82 146.3 245.67 175.89 295.35 105.31 274.92 91.19"/>
          </g>
        </g>
      </g>
    </g>
  </g>
</svg>