<svg xmlns="http://www.w3.org/2000/svg" xmlns:xlink="http://www.w3.org/1999/xlink" viewBox="0 0 261.36 261.36"><defs><style>.cls-1{isolation:isolate;}.cls-2,.cls-4{opacity:0.5;}.cls-2{mix-blend-mode:multiply;}.cls-3{fill:#e6e6e6;}.cls-4{fill:#ccc;}</style></defs><title>arrowUPv2</title><g class="cls-1"><g id="Capa_7" data-name="Capa 7"><image class="cls-2" width="1089" height="565" transform="scale(0.24)" xlink:href="arrowUPv21.png"/><path class="cls-3" d="M7076.3,7196.806l121.564-117.525a3.113,3.113,0,0,1,4.283,0l121.561,117.525a2.921,2.921,0,0,1-2.142,5h-30.98a3.089,3.089,0,0,1-2.141-.859l-86.3-83.421a3.115,3.115,0,0,0-4.283,0l-86.3,83.425a3.087,3.087,0,0,1-2.142.858h-30.98a2.92,2.92,0,0,1-2.146-5.005Z" transform="translate(-7068.22 -7073.26)"/><image class="cls-2" width="302" height="611" transform="translate(94.56 114.72) scale(0.24)" xlink:href="arrowUPv22.png"/><path class="cls-3" d="M7230.18,7193v134.5h-60.35s.13-66.1.11-105.66c0-7.51-.01-14.07-.03-19.03-.01-5.63-.03-9.21-.07-9.81Z" transform="translate(-7068.22 -7073.26)"/><image class="cls-2" width="538" height="294" transform="translate(66.24 66.24) scale(0.24)" xlink:href="arrowUPv23.png"/><path class="cls-3" d="M7258.41,7202.9h-28.23v.1h-60.34a.355.355,0,0,0-.01-.1H7141.6l58.4-58.4Z" transform="translate(-7068.22 -7073.26)"/><path class="cls-4" d="M7231.86,7202.81l-1.68.52-60.24,18.51c0-7.51-.01-14.07-.03-19.03Z" transform="translate(-7068.22 -7073.26)"/></g></g></svg>