<?xml version="1.0" encoding="UTF-8" standalone="no"?><!DOCTYPE svg PUBLIC "-//W3C//DTD SVG 1.1//EN" "http://www.w3.org/Graphics/SVG/1.1/DTD/svg11.dtd"><svg width="100%" height="100%" viewBox="0 0 135 145" version="1.1" xmlns="http://www.w3.org/2000/svg" xmlns:xlink="http://www.w3.org/1999/xlink" xml:space="preserve" xmlns:serif="http://www.serif.com/" style="fill-rule:evenodd;clip-rule:evenodd;stroke-linejoin:round;stroke-miterlimit:2;"><g id="Capa1"><path d="M36.112,119.185c-4.687,4.686 -12.285,4.686 -16.971,0c-1.247,-1.247 -2.121,-2.121 -2.121,-2.121l50.048,-50.049l50.048,50.049c0,-0 -0.874,0.874 -2.121,2.121c-4.686,4.686 -12.284,4.686 -16.971,0c-11.592,-11.592 -30.956,-30.956 -30.956,-30.956c-0,-0 -19.364,19.364 -30.956,30.956Z" style="fill:#fff;"/><path d="M36.112,73.585c-4.687,4.686 -12.285,4.686 -16.971,0c-1.247,-1.247 -2.121,-2.121 -2.121,-2.121l50.048,-50.049l50.048,50.049c0,-0 -0.874,0.874 -2.121,2.121c-4.686,4.686 -12.284,4.686 -16.971,0c-11.592,-11.592 -30.956,-30.956 -30.956,-30.956c-0,-0 -19.364,19.364 -30.956,30.956Z" style="fill:#fff;"/></g></svg>