<?xml version="1.0" encoding="UTF-8"?><svg id="Capa_1" xmlns="http://www.w3.org/2000/svg" viewBox="0 0 745.54 754.39"><defs><style>.cls-1{fill:#fff;fill-rule:evenodd;}</style></defs><path class="cls-1" d="M142.2,728.22c-34.91,34.9-91.5,34.9-126.4,0-9.29-9.29-15.8-15.8-15.8-15.8l372.77-372.78,372.77,372.78-15.8,15.8c-34.9,34.9-91.49,34.9-126.4,0l-230.57-230.57-230.57,230.57h0Z"/><path class="cls-1" d="M142.2,388.58c-34.91,34.9-91.5,34.9-126.4,0-9.29-9.29-15.8-15.8-15.8-15.8L372.77,0l372.77,372.78-15.8,15.8c-34.9,34.9-91.49,34.9-126.4,0-86.34-86.34-230.57-230.57-230.57-230.57l-230.57,230.57h0Z"/></svg>