<svg xmlns="http://www.w3.org/2000/svg" viewBox="0 0 128 127.939"><defs><style>.cls-1{fill:#fff;}</style></defs><title>arrowUP1</title><g id="Capa_2" data-name="Capa 2"><g id="arrow"><path class="cls-1" d="M.459,60.808,62.9.441a1.6,1.6,0,0,1,2.2,0l62.44,60.367a1.5,1.5,0,0,1-1.1,2.569l-15.913,0a1.586,1.586,0,0,1-1.1-.441L65.1,20.087a1.6,1.6,0,0,0-2.2,0L18.574,62.938a1.586,1.586,0,0,1-1.1.441l-15.913,0A1.5,1.5,0,0,1,.459,60.808Z"/><path class="cls-1" d="M34,63.939l30-30,30,30H79.5v64h-31s.133-64,0-64Z"/></g></g></svg>