<svg xmlns="http://www.w3.org/2000/svg" viewBox="0 0 128 127.8"><defs><style>.cls-1{fill:#fff;}</style></defs><title>build1</title><g id="Capa_2" data-name="Capa 2"><g id="build_work" data-name="build work"><rect class="cls-1" x="0.5" y="112.3" width="29" height="15"/><path class="cls-1" d="M29,112.8v14H1v-14H29m1-1H0v16H30v-16Z"/><rect class="cls-1" x="33.167" y="112.301" width="29" height="15"/><path class="cls-1" d="M61.667,112.8v14h-28v-14h28m1-1h-30v16h30v-16Z"/><rect class="cls-1" x="65.833" y="112.301" width="29" height="15"/><path class="cls-1" d="M94.333,112.8v14h-28v-14h28m1-1h-30v16h30v-16Z"/><rect class="cls-1" x="98.5" y="112.3" width="29" height="15"/><path class="cls-1" d="M127,112.8v14H99v-14h28m1-1H98v16h30v-16Z"/><rect class="cls-1" x="0.5" y="75.03" width="29" height="15"/><path class="cls-1" d="M29,75.53v14H1v-14H29m1-1H0v16H30v-16Z"/><rect class="cls-1" x="33.167" y="75.034" width="29" height="15"/><path class="cls-1" d="M61.667,75.534v14h-28v-14h28m1-1h-30v16h30v-16Z"/><rect class="cls-1" x="65.833" y="75.034" width="29" height="15"/><path class="cls-1" d="M94.333,75.534v14h-28v-14h28m1-1h-30v16h30v-16Z"/><rect class="cls-1" x="98.5" y="75.03" width="29" height="15"/><path class="cls-1" d="M127,75.53v14H99v-14h28m1-1H98v16h30v-16Z"/><rect class="cls-1" x="33.167" y="37.767" width="29" height="15"/><path class="cls-1" d="M61.667,38.267v14h-28v-14h28m1-1h-30v16h30v-16Z"/><rect class="cls-1" x="65.833" y="37.767" width="29" height="15"/><path class="cls-1" d="M94.333,38.267v14h-28v-14h28m1-1h-30v16h30v-16Z"/><rect class="cls-1" x="98.5" y="37.77" width="29" height="15"/><path class="cls-1" d="M127,38.27v14H99v-14h28m1-1H98v16h30v-16Z"/><rect class="cls-1" x="0.5" y="93.67" width="14" height="15"/><path class="cls-1" d="M14,94.17v14H1v-14H14m1-1H0v16H15v-16Z"/><rect class="cls-1" x="17.5" y="93.667" width="29" height="15"/><path class="cls-1" d="M46,94.167v14H18v-14H46m1-1H17v16H47v-16Z"/><rect class="cls-1" x="49.5" y="93.667" width="29" height="15"/><path class="cls-1" d="M78,94.167v14H50v-14H78m1-1H49v16H79v-16Z"/><rect class="cls-1" x="81.5" y="93.667" width="29" height="15"/><path class="cls-1" d="M110,94.167v14H82v-14h28m1-1H81v16h30v-16Z"/><rect class="cls-1" x="0.5" y="56.4" width="14" height="15"/><path class="cls-1" d="M14,56.9v14H1v-14H14m1-1H0v16H15v-16Z"/><rect class="cls-1" x="17.5" y="56.4" width="29" height="15"/><path class="cls-1" d="M46,56.9v14H18v-14H46m1-1H17v16H47v-16Z"/><rect class="cls-1" x="49.5" y="56.4" width="29" height="15"/><path class="cls-1" d="M78,56.9v14H50v-14H78m1-1H49v16H79v-16Z"/><rect class="cls-1" x="113.5" y="56.4" width="14" height="15"/><path class="cls-1" d="M127,56.9v14H114v-14h13m1-1H113v16h15v-16Z"/><rect class="cls-1" x="49.5" y="19.134" width="29" height="15"/><path class="cls-1" d="M78,19.633v14H50v-14H78m1-1H49v16H79v-16Z"/><rect class="cls-1" x="113.5" y="19.13" width="14" height="15"/><path class="cls-1" d="M127,19.63v14H114v-14h13m1-1H113v16h15v-16Z"/><rect class="cls-1" x="33.167" y="0.5" width="29" height="15"/><path class="cls-1" d="M61.667,1V15h-28V1h28m1-1h-30V16h30V0Z"/></g></g></svg>