<svg xmlns="http://www.w3.org/2000/svg" xmlns:xlink="http://www.w3.org/1999/xlink" viewBox="0 0 244.56 214.8"><defs><style>.cls-1{isolation:isolate;}.cls-2{opacity:0.5;mix-blend-mode:multiply;}.cls-3{fill:#e6e6e6;}.cls-4{fill:#a3a3a3;}</style></defs><title>buildM2</title><g class="cls-1"><g id="Capa_6" data-name="Capa 6"><image class="cls-2" width="1019" height="895" transform="scale(0.24)" xlink:href="buildM21.png"/><path class="cls-3" d="M7314.98,7197l-55.57-96.26a5.009,5.009,0,0,0-4.33-2.5H7143.92a5.009,5.009,0,0,0-4.33,2.5L7084.02,7197a4.967,4.967,0,0,0,0,5l55.57,96.26a5.009,5.009,0,0,0,4.33,2.5h111.16a5.009,5.009,0,0,0,4.33-2.5l55.57-96.26A4.967,4.967,0,0,0,7314.98,7197ZM7199,7243.39a43.39,43.39,0,1,1,43.39-43.39A43.395,43.395,0,0,1,7199,7243.39Z" transform="translate(-7076.14 -7093.18)"/><image class="cls-2" width="764" height="764" transform="translate(31.2 16.08) scale(0.24)" xlink:href="buildM22.png"/><path class="cls-4" d="M7200,7114.39a85.61,85.61,0,1,0,85.61,85.61A85.611,85.611,0,0,0,7200,7114.39Zm-1,129a43.39,43.39,0,1,1,43.39-43.39A43.395,43.395,0,0,1,7199,7243.39Z" transform="translate(-7076.14 -7093.18)"/><path class="cls-3" d="M7199,7144.42a55.58,55.58,0,1,0,55.58,55.58A55.588,55.588,0,0,0,7199,7144.42Zm0,98.97a43.39,43.39,0,1,1,43.39-43.39A43.395,43.395,0,0,1,7199,7243.39Z" transform="translate(-7076.14 -7093.18)"/></g></g></svg>