<svg xmlns="http://www.w3.org/2000/svg" viewBox="0 0 128 92"><defs><style>.cls-1{fill:#fff;}</style></defs><title>contact1</title><g id="Capa_2" data-name="Capa 2"><g id="contact"><path class="cls-1" d="M64,40,2.92,1.82A8,8,0,0,1,8,0H120a8,8,0,0,1,5.08,1.82Z"/><path class="cls-1" d="M128,8V80H0V8A8.428,8.428,0,0,1,.06,6.99L64,46.96,127.94,6.99A8.428,8.428,0,0,1,128,8Z"/><path class="cls-1" d="M0,84H128a0,0,0,0,1,0,0v0a8,8,0,0,1-8,8H8a8,8,0,0,1-8-8v0A0,0,0,0,1,0,84Z"/><path class="cls-1" d="M125.08,1.82,64,40,2.92,1.82A8,8,0,0,1,8,0H120A8,8,0,0,1,125.08,1.82Z"/></g></g></svg>