<svg xmlns="http://www.w3.org/2000/svg" xmlns:xlink="http://www.w3.org/1999/xlink" viewBox="0 0 499.68 439.44"><defs><style>.cls-1{isolation:isolate;}.cls-2{opacity:0.5;mix-blend-mode:multiply;}.cls-3{fill:#f4f4f4;}.cls-4{fill:#d8d8d8;}.cls-5{fill:#ececec;}.cls-6{fill:#f6f6f6;}.cls-7{fill:#e7e7e7;}.cls-8{fill:#e2e2e2;}.cls-9{fill:#cecece;}</style></defs><title>contactMv2</title><g class="cls-1"><g id="Capa_3" data-name="Capa 3"><image class="cls-2" width="2082" height="1548" transform="translate(0 67.92) scale(0.24)" xlink:href="contactMv21.png"/><path class="cls-3" d="M480.47,92.57a29.622,29.622,0,0,0-19.62-7.38H51.05a29.774,29.774,0,0,0-29.77,29.76V396.64a29.777,29.777,0,0,0,29.77,29.77h409.8a29.77,29.77,0,0,0,29.76-29.77V114.95A29.674,29.674,0,0,0,480.47,92.57Z" transform="translate(-12.12 -8.04)"/><path class="cls-4" d="M480.47,92.57,255.96,255.83,31.41,92.59a29.621,29.621,0,0,1,19.64-7.4h409.8A29.622,29.622,0,0,1,480.47,92.57Z" transform="translate(-12.12 -8.04)"/><image class="cls-2" width="1547" height="1169" transform="translate(60.24) scale(0.24)" xlink:href="contactMv22.png"/><rect class="cls-5" x="73.273" y="13.148" width="341.108" height="250.231" rx="30"/><path class="cls-6" d="M255.96,255.83,31.48,419.07a29.7,29.7,0,0,1-10.2-22.43V114.95A29.673,29.673,0,0,1,31.41,92.59Z" transform="translate(-12.12 -8.04)"/><path class="cls-7" d="M490.61,114.95V396.64a29.688,29.688,0,0,1-10.15,22.39l-224.5-163.2L480.47,92.57A29.674,29.674,0,0,1,490.61,114.95Z" transform="translate(-12.12 -8.04)"/><path class="cls-8" d="M480.46,419.03a29.616,29.616,0,0,1-19.61,7.38H51.05a29.649,29.649,0,0,1-19.57-7.34L255.96,255.83Z" transform="translate(-12.12 -8.04)"/></g><g id="Capa_5" data-name="Capa 5"><path class="cls-9" d="M21.03,119V396.64a29.77,29.77,0,0,0,29.76,29.77h2.36V142.12Z" transform="translate(-12.12 -8.04)"/><path class="cls-9" d="M21.03,114.95V119l32.12,23.12L233.49,271.96l22.09,15.9.24-.2v-31.8L53.15,108.55,31.17,92.57A29.674,29.674,0,0,0,21.03,114.95Z" transform="translate(-12.12 -8.04)"/><path class="cls-9" d="M490.61,119V396.64a29.77,29.77,0,0,1-29.76,29.77h-2.36V142.12Z" transform="translate(-12.12 -8.04)"/><path class="cls-9" d="M490.61,114.95V119l-32.12,23.12L278.15,271.96l-22.09,15.9-.24-.2v-31.8L458.49,108.55l21.98-15.98A29.674,29.674,0,0,1,490.61,114.95Z" transform="translate(-12.12 -8.04)"/></g></g></svg>