<svg xmlns="http://www.w3.org/2000/svg" xmlns:xlink="http://www.w3.org/1999/xlink" viewBox="0 0 246.24 246.24"><defs><style>.cls-1{isolation:isolate;}.cls-2{opacity:0.5;mix-blend-mode:multiply;}.cls-3{fill:#1a1a1a;}</style></defs><title>cruzV1</title><g class="cls-1"><g id="Capa_5" data-name="Capa 5"><image class="cls-2" width="1026" height="1026" transform="scale(0.24)" xlink:href="cruzV11.png"/><path class="cls-3" d="M7316.51,7192.08v14.84a10.016,10.016,0,0,1-10.01,10.02h-89.56v89.56a10.016,10.016,0,0,1-10.02,10.01h-14.84a10.016,10.016,0,0,1-10.02-10.01v-89.56H7092.5a10.016,10.016,0,0,1-10.01-10.02v-14.84a10.016,10.016,0,0,1,10.01-10.02h89.56V7092.5a10.016,10.016,0,0,1,10.02-10.01h14.84a10.016,10.016,0,0,1,10.02,10.01v89.56h89.56A10.016,10.016,0,0,1,7316.51,7192.08Z" transform="translate(-7075.42 -7077.34)"/></g></g></svg>