<svg xmlns="http://www.w3.org/2000/svg" xmlns:xlink="http://www.w3.org/1999/xlink" viewBox="0 0 457.68 487.2"><defs><style>.cls-1{isolation:isolate;}.cls-2,.cls-4{opacity:0.5;}.cls-2{mix-blend-mode:multiply;}.cls-3{fill:url(#Degradado_sin_nombre_20);}.cls-5{fill:url(#Degradado_sin_nombre_20-2);}</style><linearGradient id="Degradado_sin_nombre_20" x1="396.065" y1="505.893" x2="115.829" y2="225.657" gradientUnits="userSpaceOnUse"><stop offset="0" stop-color="#f5f5f5"/><stop offset="1" stop-color="#d7d7d7"/></linearGradient><linearGradient id="Degradado_sin_nombre_20-2" x1="146.117" y1="130.919" x2="365.902" y2="350.704" xlink:href="#Degradado_sin_nombre_20"/></defs><title>homeMv2</title><g class="cls-1"><g id="Capa_6" data-name="Capa 6"><image class="cls-2" width="1547" height="1103" transform="translate(43.2 222.48) scale(0.24)" xlink:href="homeMv21.png"/><path class="cls-3" d="M85.393,256.093V467.826c0,12.535,13.408,22.7,29.947,22.7h66.053v-160H330.727v160h65.827c16.54,0,29.947-10.161,29.947-22.7V256.093Z" transform="translate(-29.16 -20.52)"/><image class="cls-4" width="1907" height="1051" transform="scale(0.24)" xlink:href="homeMv22.png"/><path class="cls-5" d="M234.978,42.249,46.734,230.3a14.827,14.827,0,0,0,10.479,25.316H454.807A14.827,14.827,0,0,0,465.288,230.3L277.136,42.254A29.821,29.821,0,0,0,234.978,42.249Z" transform="translate(-29.16 -20.52)"/></g></g></svg>