<?xml version="1.0" encoding="UTF-8"?><svg id="icon_english_dark" xmlns="http://www.w3.org/2000/svg" viewBox="0 0 128 128"><defs><style>.cls-1{fill:#fff;}.cls-2{fill:none;stroke:#000;stroke-miterlimit:10;stroke-width:8px;}</style></defs><circle class="cls-1" cx="64" cy="64" r="60"/><g id="ES"><path d="M45.47,52.96v7.97h13.78v6.14h-13.78v7.97h15.31v6.14h-21.79v-34.37h21.79v6.14h-15.31Z"/><path d="M77.25,81.95c-1.47,0-2.88-.21-4.22-.62-1.34-.42-2.58-1.04-3.7-1.87s-2.1-1.85-2.93-3.05c-.83-1.2-1.49-2.6-1.97-4.2l6.1-2.4c.45,1.73,1.23,3.16,2.35,4.3,1.12,1.14,2.59,1.7,4.42,1.7.67,0,1.32-.09,1.94-.26.62-.17,1.18-.43,1.68-.77s.89-.76,1.18-1.27c.29-.51.43-1.1.43-1.78s-.11-1.22-.34-1.73c-.22-.51-.6-.99-1.13-1.44-.53-.45-1.22-.88-2.06-1.3s-1.9-.85-3.14-1.3l-2.11-.77c-.93-.32-1.86-.75-2.81-1.3-.94-.54-1.8-1.2-2.57-1.97-.77-.77-1.4-1.67-1.9-2.71-.5-1.04-.74-2.22-.74-3.53s.26-2.6.79-3.77c.53-1.17,1.28-2.19,2.26-3.07.98-.88,2.14-1.57,3.5-2.06,1.36-.5,2.87-.74,4.54-.74s3.22.23,4.49.7c1.26.46,2.33,1.06,3.22,1.78.88.72,1.59,1.51,2.14,2.38.54.86.94,1.68,1.2,2.45l-5.71,2.4c-.32-.96-.9-1.82-1.75-2.59-.85-.77-2.01-1.15-3.48-1.15s-2.58.33-3.5.98c-.93.66-1.39,1.51-1.39,2.57s.45,1.9,1.34,2.62c.9.72,2.32,1.42,4.27,2.09l2.16.72c1.38.48,2.63,1.03,3.77,1.66,1.13.62,2.11,1.37,2.93,2.23.82.86,1.44,1.85,1.87,2.95.43,1.1.65,2.38.65,3.82,0,1.79-.36,3.34-1.08,4.63-.72,1.3-1.64,2.36-2.76,3.19s-2.38,1.46-3.79,1.87c-1.41.42-2.78.62-4.13.62Z"/></g><g id="_Repetición_radial_"><circle cx="64.02" cy="116.09" r="6"/></g><g id="_Repetición_radial_-2"><circle cx="44.08" cy="112.13" r="6"/></g><g id="_Repetición_radial_-3"><circle cx="27.18" cy="100.85" r="6"/></g><g id="_Repetición_radial_-4"><circle cx="15.88" cy="83.95" r="6"/></g><g id="_Repetición_radial_-5"><circle cx="11.91" cy="64.02" r="6"/></g><g id="_Repetición_radial_-6"><circle cx="15.87" cy="44.08" r="6"/></g><g id="_Repetición_radial_-7"><circle cx="27.15" cy="27.18" r="6"/></g><g id="_Repetición_radial_-8"><circle cx="44.05" cy="15.88" r="6"/></g><g id="_Repetición_radial_-9"><circle cx="63.98" cy="11.91" r="6"/></g><g id="_Repetición_radial_-10"><circle cx="83.92" cy="15.87" r="6"/></g><g id="_Repetición_radial_-11"><circle cx="100.82" cy="27.15" r="6"/></g><g id="_Repetición_radial_-12"><circle cx="112.12" cy="44.05" r="6"/></g><g id="_Repetición_radial_-13"><circle cx="116.09" cy="63.98" r="6"/></g><g id="_Repetición_radial_-14"><circle cx="112.13" cy="83.92" r="6"/></g><g id="_Repetición_radial_-15"><circle cx="100.85" cy="100.82" r="6"/></g><g id="_Repetición_radial_-16"><circle cx="83.95" cy="112.12" r="6"/></g><circle class="cls-2" cx="64" cy="64" r="40.5"/></svg>