<?xml version="1.0" encoding="UTF-8"?><svg id="icon_english_dark" xmlns="http://www.w3.org/2000/svg" viewBox="0 0 128 128"><defs><style>.cls-1{fill:#fff;}.cls-2{fill:none;stroke:#000;stroke-miterlimit:10;stroke-width:8px;}</style></defs><circle class="cls-1" cx="64" cy="64" r="60"/><g id="EN"><path d="M42.71,52.96v7.97h13.78v6.14h-13.78v7.97h15.31v6.14h-21.79v-34.37h21.79v6.14h-15.31Z"/><path d="M63.98,46.82h7.54l13.82,23.04h.38l-.38-6.62v-16.42h6.43v34.37h-6.82l-14.59-24.34h-.38l.38,6.62v17.71h-6.38v-34.37Z"/></g><g id="_Repetición_radial_"><circle cx="64.02" cy="116.09" r="6"/></g><g id="_Repetición_radial_-2"><circle cx="44.08" cy="112.13" r="6"/></g><g id="_Repetición_radial_-3"><circle cx="27.18" cy="100.85" r="6"/></g><g id="_Repetición_radial_-4"><circle cx="15.88" cy="83.95" r="6"/></g><g id="_Repetición_radial_-5"><circle cx="11.91" cy="64.02" r="6"/></g><g id="_Repetición_radial_-6"><circle cx="15.87" cy="44.08" r="6"/></g><g id="_Repetición_radial_-7"><circle cx="27.15" cy="27.18" r="6"/></g><g id="_Repetición_radial_-8"><circle cx="44.05" cy="15.88" r="6"/></g><g id="_Repetición_radial_-9"><circle cx="63.98" cy="11.91" r="6"/></g><g id="_Repetición_radial_-10"><circle cx="83.92" cy="15.87" r="6"/></g><g id="_Repetición_radial_-11"><circle cx="100.82" cy="27.15" r="6"/></g><g id="_Repetición_radial_-12"><circle cx="112.12" cy="44.05" r="6"/></g><g id="_Repetición_radial_-13"><circle cx="116.09" cy="63.98" r="6"/></g><g id="_Repetición_radial_-14"><circle cx="112.13" cy="83.92" r="6"/></g><g id="_Repetición_radial_-15"><circle cx="100.85" cy="100.82" r="6"/></g><g id="_Repetición_radial_-16"><circle cx="83.95" cy="112.12" r="6"/></g><circle class="cls-2" cx="64" cy="64" r="40.5"/></svg>