<?xml version="1.0" encoding="UTF-8"?>
<svg id="Capa_2" data-name="Capa 2" xmlns="http://www.w3.org/2000/svg" xmlns:xlink="http://www.w3.org/1999/xlink" viewBox="0 0 120 120">
  <defs>
    <style>
      .cls-1, .cls-2 {
        stroke-width: 0px;
      }

      .cls-2 {
        fill: #fff;
      }

      .cls-3 {
        mask: url(#mask);
      }
    </style>
    <mask id="mask" x="18" y="18" width="84" height="59.5" maskUnits="userSpaceOnUse">
      <path class="cls-2" d="m102,60c0-23.2-18.8-42-42-42S18,36.8,18,60h84Z"/>
    </mask>
  </defs>
  <g id="icon_english_dark">
    <path class="cls-2" d="m120,60C120,26.86,93.14,0,60,0S0,26.86,0,60h120Z"/>
    <path class="cls-1" d="m0,60c0,33.14,26.86,60,60,60s60-26.86,60-60H0Z"/>
    <path class="cls-2" d="m8.5,60c0,28.44,23.06,51.5,51.5,51.5s51.5-23.06,51.5-51.5H8.5Z"/>
    <path class="cls-1" d="m111.5,60c0-28.44-23.06-51.5-51.5-51.5S8.5,31.56,8.5,60h103Z"/>
    <path class="cls-2" d="m102,60c0-23.2-18.8-42-42-42S18,36.8,18,60h84Z"/>
    <path class="cls-1" d="m18,60c0,23.2,18.8,42,42,42s42-18.8,42-42H18Z"/>
    <g>
      <path class="cls-2" d="m41.94,49.24v7.76h13.43v5.99h-13.43v7.77h14.93v5.99h-21.24v-33.5h21.24v5.99h-14.93Z"/>
      <path class="cls-2" d="m72.91,77.5c-1.44,0-2.81-.21-4.12-.61-1.31-.41-2.51-1.01-3.6-1.82-1.09-.81-2.04-1.8-2.86-2.97-.81-1.17-1.45-2.53-1.92-4.09l5.94-2.34c.44,1.68,1.2,3.08,2.29,4.19,1.09,1.1,2.53,1.66,4.3,1.66.65,0,1.29-.09,1.9-.26.61-.17,1.15-.42,1.64-.75.48-.33.86-.74,1.15-1.24.28-.5.42-1.08.42-1.73s-.11-1.18-.33-1.68c-.22-.5-.58-.97-1.1-1.41-.51-.43-1.18-.86-2.01-1.26-.83-.4-1.85-.82-3.07-1.26l-2.06-.75c-.91-.31-1.82-.73-2.74-1.26-.92-.53-1.76-1.17-2.5-1.92-.75-.75-1.37-1.63-1.85-2.65-.48-1.01-.73-2.16-.73-3.44s.26-2.53.77-3.67c.51-1.13,1.25-2.14,2.2-2.99s2.09-1.53,3.42-2.01c1.33-.48,2.8-.73,4.42-.73s3.14.23,4.38.68c1.23.45,2.28,1.03,3.14,1.73.86.7,1.55,1.47,2.08,2.32.53.84.92,1.64,1.17,2.39l-5.57,2.34c-.31-.93-.88-1.78-1.71-2.52-.83-.75-1.96-1.12-3.39-1.12s-2.51.32-3.42.96c-.91.64-1.36,1.47-1.36,2.5s.44,1.85,1.31,2.55c.87.7,2.26,1.38,4.16,2.03l2.11.7c1.34.47,2.57,1.01,3.67,1.61,1.11.61,2.06,1.33,2.85,2.17.8.84,1.41,1.8,1.83,2.88.42,1.07.63,2.32.63,3.72,0,1.75-.35,3.25-1.05,4.51-.7,1.26-1.6,2.3-2.69,3.11-1.09.81-2.32,1.42-3.7,1.82-1.37.4-2.71.61-4.02.61Z"/>
    </g>
    <g class="cls-3">
      <g>
        <path class="cls-1" d="m41.94,49.24v7.76h13.43v5.99h-13.43v7.77h14.93v5.99h-21.24v-33.5h21.24v5.99h-14.93Z"/>
        <path class="cls-1" d="m72.91,77.5c-1.44,0-2.81-.21-4.12-.61-1.31-.41-2.51-1.01-3.6-1.82-1.09-.81-2.04-1.8-2.86-2.97-.81-1.17-1.45-2.53-1.92-4.09l5.94-2.34c.44,1.68,1.2,3.08,2.29,4.19,1.09,1.1,2.53,1.66,4.3,1.66.65,0,1.29-.09,1.9-.26.61-.17,1.15-.42,1.64-.75.48-.33.86-.74,1.15-1.24.28-.5.42-1.08.42-1.73s-.11-1.18-.33-1.68c-.22-.5-.58-.97-1.1-1.41-.51-.43-1.18-.86-2.01-1.26-.83-.4-1.85-.82-3.07-1.26l-2.06-.75c-.91-.31-1.82-.73-2.74-1.26-.92-.53-1.76-1.17-2.5-1.92-.75-.75-1.37-1.63-1.85-2.65-.48-1.01-.73-2.16-.73-3.44s.26-2.53.77-3.67c.51-1.13,1.25-2.14,2.2-2.99s2.09-1.53,3.42-2.01c1.33-.48,2.8-.73,4.42-.73s3.14.23,4.38.68c1.23.45,2.28,1.03,3.14,1.73.86.7,1.55,1.47,2.08,2.32.53.84.92,1.64,1.17,2.39l-5.57,2.34c-.31-.93-.88-1.78-1.71-2.52-.83-.75-1.96-1.12-3.39-1.12s-2.51.32-3.42.96c-.91.64-1.36,1.47-1.36,2.5s.44,1.85,1.31,2.55c.87.7,2.26,1.38,4.16,2.03l2.11.7c1.34.47,2.57,1.01,3.67,1.61,1.11.61,2.06,1.33,2.85,2.17.8.84,1.41,1.8,1.83,2.88.42,1.07.63,2.32.63,3.72,0,1.75-.35,3.25-1.05,4.51-.7,1.26-1.6,2.3-2.69,3.11-1.09.81-2.32,1.42-3.7,1.82-1.37.4-2.71.61-4.02.61Z"/>
      </g>
    </g>
  </g>
</svg>