<?xml version="1.0" encoding="UTF-8"?>
<svg id="Capa_2" data-name="Capa 2" xmlns="http://www.w3.org/2000/svg" viewBox="0 0 120 120">
  <defs>
    <style>
      .cls-1, .cls-2 {
        stroke-width: 0px;
      }

      .cls-3 {
        fill: none;
        stroke: #fff;
        stroke-miterlimit: 10;
        stroke-width: 5px;
      }

      .cls-2 {
        fill: #fff;
      }
    </style>
  </defs>
  <g id="icon_spanish_light">
    <circle class="cls-1" cx="60" cy="60" r="60"/>
    <circle class="cls-3" cx="60" cy="60" r="50"/>
    <g>
      <path class="cls-2" d="m36.29,45.87v10.19h17.63v7.86h-17.63v10.2h19.59v7.86h-27.89v-43.97h27.89v7.86h-19.59Z"/>
      <path class="cls-2" d="m76.95,82.97c-1.88,0-3.69-.27-5.41-.8-1.72-.53-3.3-1.33-4.73-2.39-1.43-1.06-2.68-2.36-3.75-3.9-1.06-1.53-1.9-3.32-2.52-5.37l7.8-3.07c.57,2.21,1.58,4.04,3.01,5.5,1.43,1.45,3.32,2.18,5.65,2.18.86,0,1.69-.11,2.49-.34.8-.22,1.51-.55,2.15-.98.63-.43,1.13-.97,1.5-1.63.37-.65.55-1.41.55-2.27s-.14-1.55-.43-2.21c-.29-.65-.77-1.27-1.44-1.84-.67-.57-1.55-1.12-2.64-1.66-1.09-.53-2.43-1.08-4.02-1.65l-2.7-.98c-1.19-.41-2.39-.96-3.59-1.66-1.21-.69-2.3-1.53-3.29-2.51-.98-.98-1.79-2.14-2.43-3.47-.63-1.33-.95-2.83-.95-4.51s.34-3.32,1.01-4.82c.67-1.49,1.64-2.8,2.89-3.93s2.74-2,4.48-2.64c1.74-.63,3.67-.95,5.8-.95s4.13.3,5.74.89c1.62.59,2.99,1.35,4.12,2.27,1.12.92,2.04,1.93,2.73,3.04.69,1.1,1.21,2.15,1.53,3.13l-7.31,3.07c-.41-1.22-1.16-2.33-2.24-3.31-1.08-.98-2.57-1.47-4.45-1.47s-3.3.42-4.48,1.26c-1.19.84-1.78,1.93-1.78,3.28s.57,2.43,1.72,3.35c1.14.92,2.97,1.81,5.47,2.67l2.76.92c1.76.61,3.37,1.32,4.82,2.12,1.45.79,2.7,1.75,3.75,2.85,1.04,1.1,1.84,2.36,2.4,3.78.55,1.41.83,3.04.83,4.88,0,2.29-.46,4.27-1.38,5.92-.92,1.66-2.1,3.02-3.53,4.09-1.43,1.06-3.05,1.86-4.85,2.39-1.8.53-3.56.8-5.28.8Z"/>
    </g>
  </g>
</svg>