<?xml version="1.0" encoding="UTF-8"?>
<svg id="Capa_2" data-name="Capa 2" xmlns="http://www.w3.org/2000/svg" xmlns:xlink="http://www.w3.org/1999/xlink" viewBox="0 0 289.32 194.62">
  <defs>
    <style>
      .cls-1 {
        fill: #ccf;
      }

      .cls-2 {
        fill: #68c;
      }

      .cls-3 {
        fill: #3673b3;
      }

      .cls-4 {
        fill: #96a2e6;
      }

      .cls-5 {
        clip-path: url(#clippath);
      }
    </style>
    <clipPath id="clippath">
      <path class="cls-4" d="M4.53,194.62l284.79-10.67s-9.99-67.48-.28-177.4L0,0c14.99,130.62,4.53,194.62,4.53,194.62"/>
    </clipPath>
  </defs>
  <g id="Contact_Graphic">
    <g id="boxmail">
      <path class="cls-4" d="M4.53,194.62l284.79-10.67s-9.99-67.48-.28-177.4L0,0c14.99,130.62,4.53,194.62,4.53,194.62"/>
      <g class="cls-5">
        <path class="cls-2" d="M299.02,95.38s-79.64-37.93-137.16-19.34C110.76,92.55-7.58,85.22-7.58,85.22l-4.75,123.96,312.49-5.15-1.14-108.65Z"/>
        <path class="cls-3" d="M299.2,162.71s-87.65,4.39-146.29-10.29c-54.9-13.74-160.79,3.61-160.79,3.61l-4.46,103.15,312.49-5.15-.96-91.32Z"/>
        <path class="cls-1" d="M315.88,18.78s-48.89,2.69-90.8,10.58c-41.91,7.89-106.68-25.06-145.15-11.7-38.48,13.36-112.82-5.93-112.82-5.93l-22.22-21.4,338.26-44.94,32.73,73.39Z"/>
      </g>
    </g>
  </g>
</svg>