<?xml version="1.0" encoding="UTF-8"?>
<svg id="Capa_2" data-name="Capa 2" xmlns="http://www.w3.org/2000/svg" xmlns:xlink="http://www.w3.org/1999/xlink" viewBox="0 0 97.94 59.34">
  <defs>
    <style>
      .cls-1 {
        fill: #ce9062;
      }

      .cls-2 {
        fill: #a05d3f;
      }

      .cls-3 {
        fill: #e7b780;
      }

      .cls-4 {
        fill: #ffdda0;
      }

      .cls-5 {
        clip-path: url(#clippath);
      }
    </style>
    <clipPath id="clippath">
      <path class="cls-1" d="M0,0s3.02,17.24,3.5,28.66c.48,11.42-3.5,30.68-3.5,30.68,0,0,19.59-6.35,49.42-6.5,27.5-.14,48.51,6.5,48.51,6.5,0,0-3.21-22.41-3.37-31.23-.16-8.82,3.37-28.11,3.37-28.11C66.3,4.43,33.63,4.33,0,0"/>
    </clipPath>
  </defs>
  <g id="Contact_Graphic">
    <g id="carta">
      <path class="cls-1" d="M0,0s3.02,17.24,3.5,28.66c.48,11.42-3.5,30.68-3.5,30.68,0,0,19.59-6.35,49.42-6.5,27.5-.14,48.51,6.5,48.51,6.5,0,0-3.21-22.41-3.37-31.23-.16-8.82,3.37-28.11,3.37-28.11C66.3,4.43,33.63,4.33,0,0"/>
      <g class="cls-5">
        <path class="cls-3" d="M2.63,4.36l46.34,45.25s-28.64-1.25-45.27,5.54C11.21,32.97,2.63,4.36,2.63,4.36"/>
        <path class="cls-2" d="M4.49,4.23c8.69,11.54,10.32,28.29,4.32,41.59-.62,1.71-1.41,3.3-1.63,5.01,0,0,0,0-.02,0-.01.02-.04-.09-.1-.1-.04,0-.15-.1-.2-.09.02,0,0,.01.06.02,3.18.12,6.38-.82,9.56-1.46,8.26-2,16.47-4.53,24.99-5.31,16.93-2.16,35.26-.27,50.03,8.82l-.23.56c-5.56-1.16-11-2.12-16.47-2.7-10.96-1.11-21.87-1.26-32.9-1.02-8.34.48-16.75.52-25.05,1.64-2.79.39-5.51.94-8.37,1.41-.74.09-1.5.25-2.27.05-2.51-.88-.68-5.76-.61-7.68.43-2.77.69-5.51.94-8.19.47-5.37.81-10.67.32-16.04-.43-5.37-1.59-10.71-2.93-16.25l.54-.26Z"/>
        <path class="cls-2" d="M94.33,3.73c-1.28,8.56-1.81,17.22-1.14,25.83,1.03,6.75,1.19,12.97.61,20.02l-.57.19c-1.33-1.61-2.51-3.39-3.28-5.28-.86-1.87-1.42-3.83-1.87-5.84-1.05-5.01-.06-10.08.45-15.04.9-6.87,2.64-13.63,5.23-20.05l.57.17"/>
        <path class="cls-2" d="M9.82,47.85c2.71-3.43,6.14-5.87,9.69-7.92,3.51-2.09,7.53-2.97,11.28-4.41,7.52-2.86,14.78-6.14,21.96-9.84l.33.5c-6.25,5.22-13.07,9.86-20.28,13.69-1.79.97-3.56,2.01-5.31,3.02-3.54,2.01-7.31,3.22-11.23,4.27-2.02.52-4.02,1-6.15,1.21l-.29-.52"/>
        <path class="cls-2" d="M51.18,30.2c5.88,2.46,11.67,5,17.67,7.1,2.93,1.04,6.07,1.41,8.87,2.81,2.97,1.4,5.76,2.9,8.32,5.17l-.14.58c-1.75.45-3.45.56-5.13.53-3.32-.11-6.63-.71-9.57-2.29l-4.31-2.42c-5.7-3.1-10.99-6.89-16.02-10.97l.31-.51"/>
        <path class="cls-4" d="M-6.25-2.56s43.56,31.43,55.22,31.24c11.65-.19,53.26-30.74,53.26-30.74L-6.25-2.56Z"/>
        <path class="cls-2" d="M9.15,4.13c9.78,4.84,19.54,9.73,29.46,14.26,3.29,1.38,7.09,3.47,10.45,4.06,6.04-2.2,11.46-6.17,17.34-8.9,6.48-3.2,13.18-6.48,20-8.94l.26.43c-2.76,2.48-5.68,4.71-8.67,6.84-8.31,5.88-17.1,11.18-26.86,14.34-.92.28-2.05.47-3.01.24-7.4-2.51-13.78-6.76-20.55-10.49-6.28-3.73-12.53-7.47-18.68-11.39l.25-.44Z"/>
      </g>
    </g>
  </g>
</svg>