<?xml version="1.0" encoding="UTF-8"?>
<svg id="Capa_2" data-name="Capa 2" xmlns="http://www.w3.org/2000/svg" xmlns:xlink="http://www.w3.org/1999/xlink" viewBox="0 0 71.16 240.18">
  <defs>
    <style>
      .cls-1 {
        fill: #bf2d00;
      }

      .cls-2 {
        fill: #ff4815;
      }

      .cls-3 {
        fill: #691e09;
      }

      .cls-4 {
        fill: #ed4314;
      }

      .cls-5 {
        clip-path: url(#clippath);
      }
    </style>
    <clipPath id="clippath">
      <rect class="cls-4" x="2.88" width="11.14" height="220.16"/>
    </clipPath>
  </defs>
  <g id="Contact_Graphic">
    <g id="flag">
      <polygon class="cls-1" points="7.82 5.86 71.16 30.23 7.82 64.28 7.82 5.86"/>
      <g>
        <rect class="cls-4" x="2.88" width="11.14" height="220.16"/>
        <g class="cls-5">
          <path class="cls-1" d="M10.14,58.08c-.32,17.39-2.6,34.78-2.1,52.2.36,17.4,1.59,34.8,1.59,52.21.33,17.53-1.81,72.99-1.81,72.99l-17.37-1.04L-6.16-5.03l14.61-2.09s1.77,47.77,1.68,65.21Z"/>
        </g>
      </g>
      <path class="cls-2" d="M34.94,222.71c0,9.65-7.82,17.47-17.47,17.47S0,232.36,0,222.71s7.82-17.47,17.47-17.47,17.47,7.82,17.47,17.47"/>
      <polygon class="cls-3" points="20.79 214.7 14.15 214.7 9.46 219.39 9.46 226.03 14.15 230.72 20.79 230.72 25.48 226.03 25.48 219.39 20.79 214.7"/>
    </g>
  </g>
</svg>