<?xml version="1.0" encoding="UTF-8"?>
<svg id="Capa_2" data-name="Capa 2" xmlns="http://www.w3.org/2000/svg" xmlns:xlink="http://www.w3.org/1999/xlink" viewBox="0 0 73.3 108.38">
  <defs>
    <style>
      .cls-1 {
        fill: #8b4b2d;
      }

      .cls-2 {
        fill: #6b3a23;
      }

      .cls-3 {
        fill: #a46f4e;
      }

      .cls-4 {
        clip-path: url(#clippath);
      }
    </style>
    <clipPath id="clippath">
      <path class="cls-3" d="M24.75,16.47l5.76,88.63c7.11-4.68,12.71-4.47,19.07-1.24l3.01-87.39h-27.84Z"/>
    </clipPath>
  </defs>
  <g id="Contact_Graphic">
    <g id="support">
      <g>
        <path class="cls-3" d="M24.75,16.47l5.76,88.63c7.11-4.68,12.71-4.47,19.07-1.24l3.01-87.39h-27.84Z"/>
        <g class="cls-4">
          <polygon class="cls-1" points="22.43 16.47 54.35 36.75 52.59 16.47 22.43 16.47"/>
          <path class="cls-1" d="M29.76,90.04c-2.38-7.34-1.12-16.45,3.22-22.84,2.41,7.34,1.1,16.44-3.22,22.84h0Z"/>
          <path class="cls-1" d="M44.1,95.93c-2.89-6.34-2.27-14.41,1.61-20.2,2.91,6.34,2.25,14.4-1.61,20.2h0Z"/>
          <path class="cls-1" d="M40.75,64.39c-1.6-7.51.61-16.4,5.6-22.25,1.62,7.52-.63,16.39-5.6,22.25h0Z"/>
          <path class="cls-1" d="M32.39,57.54c-4.66-6.99-6.43-17.02-4.39-25.18,4.68,6.98,6.41,17.02,4.39,25.18h0Z"/>
          <path class="cls-1" d="M37.63,45.83c-2.38-7.34-1.12-16.45,3.22-22.84,2.41,7.34,1.1,16.44-3.22,22.84h0Z"/>
          <path class="cls-1" d="M39.45,100.83c-4.04-6.15-4.96-14.82-2.24-21.67,4.06,6.14,4.94,14.82,2.24,21.67h0Z"/>
        </g>
      </g>
      <polygon class="cls-2" points="0 0 0 20.38 71.92 16.47 73.3 0 0 0"/>
      <polygon class="cls-3" points="24.75 51.77 24.75 108.38 28.71 106.24 24.75 51.77"/>
    </g>
  </g>
</svg>