<?xml version="1.0" encoding="UTF-8"?>
<svg xmlns="http://www.w3.org/2000/svg" width="606.0247" height="591.175" xmlns:xlink="http://www.w3.org/1999/xlink" viewBox="0 0 606.0247 591.175">
  <defs>
    <style>
      .cls-1 {
        fill: #ffaf80;
      }

      .cls-2 {
        fill: #528268;
      }

      .cls-3 {
        fill: #075275;
      }

      .cls-4 {
        fill: #b7bd0b;
      }

      .cls-5 {
        fill: #0aba97;
      }

      .cls-6 {
        fill: #829dff;
      }

      .cls-7 {
        clip-path: url(#clippath-4);
      }

      .cls-8 {
        fill: #8f0842;
      }

      .cls-9 {
        fill: #39825b;
      }

      .cls-10 {
        fill: #ff4e0e;
      }

      .cls-11 {
        fill: #426953;
      }

      .cls-12 {
        fill: #6e5622;
      }

      .cls-13 {
        fill: #ffc480;
      }

      .cls-14 {
        fill: #d6930c;
      }

      .cls-15 {
        clip-path: url(#clippath-1);
      }

      .cls-16 {
        fill: #ff4dc4;
      }

      .cls-17 {
        fill: #6978ff;
      }

      .cls-18 {
        isolation: isolate;
      }

      .cls-19 {
        clip-path: url(#clippath-5);
      }

      .cls-20 {
        fill: #b0b0b0;
      }

      .cls-21 {
        fill: #abffae;
      }

      .cls-22 {
        clip-path: url(#clippath-3);
      }

      .cls-23 {
        fill: #649e7e;
      }

      .cls-24 {
        fill: #b8cbff;
      }

      .cls-25 {
        fill: #1c8f08;
      }

      .cls-26 {
        fill: #ff6f3b;
      }

      .cls-27 {
        fill: #6a0eff;
      }

      .cls-28 {
        fill: #999;
      }

      .cls-29 {
        fill: #ff220e;
      }

      .cls-30 {
        fill: #ff6d0e;
      }

      .cls-31 {
        clip-path: url(#clippath-2);
      }

      .cls-32 {
        fill: #a70eff;
      }

      .cls-33 {
        fill: #945d99;
      }

      .cls-34 {
        fill: #ffdd80;
      }

      .cls-35 {
        clip-path: url(#clippath);
      }

      .cls-36 {
        fill: #0eff12;
      }

      .cls-37 {
        mix-blend-mode: hard-light;
      }
    </style>
    <clipPath id="clippath">
      <path class="cls-23" d="M198.9015,237.0175c0,46.4458-47.6517,84.0975-94.0975,84.0975s-84.0975-27.6517-84.0975-74.0975,37.6517-104.0975,84.0975-104.0975,94.0975,47.6517,94.0975,94.0975Z"/>
    </clipPath>
    <clipPath id="clippath-1">
      <path class="cls-34" d="M596.3126,393.4877c0,22.055-22.6276,39.934-44.6826,39.934s-39.934-13.1305-39.934-35.1855,17.8791-49.4311,39.934-49.4311,44.6826,22.6276,44.6826,44.6826Z"/>
    </clipPath>
    <clipPath id="clippath-2">
      <path class="cls-27" d="M413.2306,335.1848c0,12.8764-13.2107,23.3147-26.0871,23.3147s-23.3147-7.666-23.3147-20.5424,10.4384-28.8594,23.3147-28.8594,26.0871,13.2107,26.0871,26.0871Z"/>
    </clipPath>
    <clipPath id="clippath-3">
      <path class="cls-30" d="M456.6734,133.1066c0,13.512-13.8628,24.4656-27.3748,24.4656s-24.4656-8.0444-24.4656-21.5564,10.9536-30.284,24.4656-30.284,27.3748,13.8628,27.3748,27.3748Z"/>
    </clipPath>
    <clipPath id="clippath-4">
      <path class="cls-21" d="M356.6574,553.6705c0,13.512-13.8628,24.4656-27.3748,24.4656s-24.4656-8.0444-24.4656-21.5564,10.9536-30.284,24.4656-30.284,27.3748,13.8628,27.3748,27.3748Z"/>
    </clipPath>
    <clipPath id="clippath-5">
      <path class="cls-24" d="M243.5996,461.859c0,26.4599-27.1469,47.9098-53.6068,47.9098s-47.9098-15.753-47.9098-42.2129,21.45-59.3037,47.9098-59.3037,53.6068,27.1469,53.6068,53.6068Z"/>
    </clipPath>
  </defs>
  <g class="cls-18">
    <g id="Capa_2" data-name="Capa 2">
      <g id="Capa_6" data-name="Capa 6">
        <g id="Astroy">
          <g id="planet1">
            <g id="halo">
              <path class="cls-9" d="M213.2395,237.0175c0,54.3644-54.071,98.4354-108.4354,98.4354S6.3686,301.3819,6.3686,247.0175s44.071-118.4354,98.4354-118.4354,108.4354,54.071,108.4354,108.4354Z"/>
            </g>
            <g id="planet">
              <path class="cls-23" d="M198.9015,237.0175c0,46.4458-47.6517,84.0975-94.0975,84.0975s-84.0975-27.6517-84.0975-74.0975,37.6517-104.0975,84.0975-104.0975,94.0975,47.6517,94.0975,94.0975Z"/>
              <g class="cls-35">
                <circle class="cls-2" cx="139.5191" cy="139.5191" r="139.5191"/>
                <circle class="cls-11" cx="140.657" cy="130.2194" r="91.8179"/>
                <ellipse class="cls-4" cx="53.34" cy="210.9128" rx="28.0135" ry="33.266"/>
                <ellipse class="cls-4" cx="123.7616" cy="200.19" rx="10.5051" ry="12.2559"/>
                <ellipse class="cls-4" cx="95.7481" cy="158.7533" rx="9.3378" ry="8.1706"/>
                <ellipse class="cls-4" cx="79.8306" cy="298.9671" rx="29.7643" ry="29.1807"/>
                <ellipse class="cls-4" cx="114.6059" cy="249.5963" rx="16.9248" ry="15.174"/>
                <ellipse class="cls-4" cx="186.6575" cy="199.6046" rx="22.761" ry="27.4299"/>
                <path d="M34.4337,248.5829c1.6506-38.1201,19.1226-78.4988,58.9274-89.1598,30.3209-8.8159,59.1126,5.2569,75.0825,31.6469,5.0286,8.1862,8.6509,17.1471,10.6733,26.3775,0,0-.5721.1808-.5721.1808-3.647-8.6508-8.1224-16.8263-13.6002-24.1929-19.8216-26.9131-51.8555-39.6775-83.225-24.8739-25.829,11.6253-39.4798,39.5278-44.7092,66.175-.9063,4.577-1.6328,9.2152-1.9771,13.8655,0,0-.5997-.0192-.5997-.0192h0Z"/>
              </g>
            </g>
          </g>
          <g id="planet2">
            <g id="planet-2" data-name="planet">
              <path class="cls-34" d="M596.3126,393.4877c0,22.055-22.6276,39.934-44.6826,39.934s-39.934-13.1305-39.934-35.1855,17.8791-49.4311,39.934-49.4311,44.6826,22.6276,44.6826,44.6826Z"/>
              <g class="cls-15">
                <circle class="cls-13" cx="539.7735" cy="435.7398" r="66.2512"/>
                <circle class="cls-1" cx="535.5726" cy="442.7967" r="43.6001"/>
                <ellipse class="cls-12" cx="532.3831" cy="395.3208" rx="6.2847" ry="7.4631"/>
                <ellipse class="cls-12" cx="566.4252" cy="389.2979" rx="2.3568" ry="2.7496"/>
                <ellipse class="cls-12" cx="560.1405" cy="380.0018" rx="2.0949" ry="1.833"/>
                <ellipse class="cls-12" cx="539.5843" cy="431.5887" rx="6.6775" ry="6.5466"/>
                <ellipse class="cls-12" cx="549.2732" cy="419.8049" rx="3.797" ry="3.4042"/>
                <ellipse class="cls-12" cx="584.6247" cy="389.5598" rx="5.1063" ry="6.1538"/>
                <path d="M541.9989,356.4905c9.0946-1.8504,18.673-.8262,27.2879,2.8535,8.9577,3.7129,15.6348,11.8899,18.5058,21.0986,3.0923,9.0194,1.6991,19.4392-3.6334,27.268-5.1825,7.7676-12.9944,13.2523-21.4288,16.2527l-.2296-.5544c11.5064-5.4394,21.8204-16.0947,22.6913-29.2193.9679-12.8442-7.4214-23.821-18.5242-29.4516-7.331-3.9392-15.8258-6.1503-24.6364-7.6485,0,0-.0327-.5991-.0327-.5991h0Z"/>
              </g>
            </g>
          </g>
          <g id="planet3">
            <g id="halo-2" data-name="halo">
              <path class="cls-33" d="M386.9884,301.9128c16.7588,0,33.4272,16.6684,33.4272,33.4272s-16.6684,30.3445-33.4272,30.3445-30.3445-10.503-30.3445-27.2618,13.5857-36.5099,30.3445-36.5099M386.9884,296.9128c-19.9052,0-35.3445,22.314-35.3445,41.5099,0,18.6938,14.8645,32.2618,35.3445,32.2618,9.3706,0,18.9547-3.6917,26.2948-10.1284,7.8237-6.8608,12.1324-15.8161,12.1324-25.2161,0-9.304-4.335-18.9752-11.8935-26.5337-7.5585-7.5585-17.2296-11.8935-26.5337-11.8935h0Z"/>
            </g>
            <g id="planet-3" data-name="planet">
              <path class="cls-27" d="M413.2306,335.1848c0,12.8764-13.2107,23.3147-26.0871,23.3147s-23.3147-7.666-23.3147-20.5424,10.4384-28.8594,23.3147-28.8594,26.0871,13.2107,26.0871,26.0871Z"/>
              <g class="cls-31">
                <circle class="cls-32" cx="388.3044" cy="337.0721" r="22.2377"/>
                <circle class="cls-16" cx="386.555" cy="335.2903" r="16.5716"/>
                <ellipse class="cls-14" cx="375.9066" cy="336.255" rx="3.6692" ry="4.3572"/>
                <ellipse class="cls-14" cx="395.7814" cy="318.7386" rx="1.376" ry="1.6053"/>
                <ellipse class="cls-14" cx="392.1122" cy="324.3113" rx="1.2231" ry="1.0702"/>
                <ellipse class="cls-14" cx="400.1109" cy="355.4293" rx="3.8985" ry="3.8221"/>
                <ellipse class="cls-14" cx="385.7676" cy="340.5496" rx="2.2168" ry="1.9875"/>
                <ellipse class="cls-14" cx="406.4068" cy="332.8915" rx="2.9812" ry="3.5928"/>
                <path d="M400.1646,319.3271c12.2821,13.5321,7.2182,28.5242-9.6919,34.1553-8.8985,2.9772-19.6832-3.2854-21.5116-12.0903-.0001.0002.5153-.307.5153-.307,5.6173,5.0304,12.4101,7.6191,19.8065,6.7823,4.7329-.5115,9.301-3.3024,12.2361-6.9578,3.116-3.9554,3.2851-9.3537,1.6685-14.0934-.8251-2.4687-1.9959-4.9014-3.48-7.1005l.4572-.3886h0Z"/>
              </g>
            </g>
          </g>
          <g id="planet4">
            <path id="halo-3" data-name="halo" class="cls-26" d="M460.8446,133.1066c0,15.8157-15.7303,28.6368-31.546,28.6368s-28.6368-9.9119-28.6368-25.7276,12.8211-34.4552,28.6368-34.4552,31.546,15.7303,31.546,31.546Z"/>
            <g id="planet-4" data-name="planet">
              <path class="cls-30" d="M456.6734,133.1066c0,13.512-13.8628,24.4656-27.3748,24.4656s-24.4656-8.0444-24.4656-21.5564,10.9536-30.284,24.4656-30.284,27.3748,13.8628,27.3748,27.3748Z"/>
              <g class="cls-22">
                <circle class="cls-10" cx="452.4807" cy="152.7593" r="40.5888"/>
                <circle class="cls-29" cx="458.6573" cy="154.9251" r="26.7116"/>
                <ellipse class="cls-8" cx="412.5765" cy="140.9314" rx="12.0629" ry="1.8535" transform="translate(-15.0699 225.7818) rotate(-30.082)"/>
                <ellipse class="cls-8" cx="431.1762" cy="132.2564" rx="6.036" ry=".8975" transform="translate(-8.2164 233.9362) rotate(-30.082)"/>
                <ellipse class="cls-8" cx="417.2596" cy="113.2984" rx="8.4585" ry=".766" transform="translate(-.5884 224.4072) rotate(-30.082)"/>
                <ellipse class="cls-8" cx="417.6411" cy="147.9827" rx="9.359" ry="1.4464" transform="translate(-17.9221 229.2701) rotate(-30.082)"/>
                <ellipse class="cls-8" cx="430.0878" cy="112.5103" rx="7.5854" ry=".7661" transform="translate(1.5345 230.731) rotate(-30.082)"/>
                <ellipse class="cls-8" cx="449.7216" cy="125.2515" rx="11.7531" ry="2.5088" transform="translate(-2.2074 242.2884) rotate(-30.082)"/>
                <path d="M432.6974,111.0892c7.9825,2.7869,15.6637,8.1476,18.8804,16.3152,3.2134,8.5459.9982,20.0025-7.3561,24.8043-5.3851,3.1989-11.8115,3.8339-17.2606,1.9734l.0225-.5996c2.7262-.7758,5.2463-1.5593,7.577-2.6027,12.4973-5.4626,18.291-17.1492,9.9866-29.104-2.9958-4.2232-7.3464-7.6445-12.0698-10.2284l.22-.5582h0Z"/>
              </g>
            </g>
          </g>
          <g id="planet5">
            <g id="planet-5" data-name="planet">
              <path class="cls-21" d="M356.6574,553.6705c0,13.512-13.8628,24.4656-27.3748,24.4656s-24.4656-8.0444-24.4656-21.5564,10.9536-30.284,24.4656-30.284,27.3748,13.8628,27.3748,27.3748Z"/>
              <g class="cls-7">
                <circle class="cls-36" cx="310.0083" cy="528.1275" r="40.5888"/>
                <circle class="cls-5" cx="307.9674" cy="530.489" r="26.7116"/>
                <ellipse class="cls-25" cx="317.491" cy="554.7935" rx="3.8503" ry="4.5723"/>
                <ellipse class="cls-25" cx="338.3469" cy="551.1036" rx="1.4439" ry="1.6845"/>
                <ellipse class="cls-25" cx="334.4966" cy="545.4083" rx="1.2834" ry="1.123"/>
                <ellipse class="cls-25" cx="321.9028" cy="577.0131" rx="4.091" ry="4.0108"/>
                <ellipse class="cls-25" cx="327.8387" cy="569.7937" rx="2.3262" ry="2.0856"/>
                <ellipse class="cls-25" cx="349.4968" cy="551.264" rx="3.1284" ry="3.7701"/>
                <path d="M332.6814,531.6531c7.9825,2.7869,15.6637,8.1476,18.8804,16.3152,3.2134,8.5459.9982,20.0025-7.3561,24.8043-5.3851,3.1989-11.8115,3.8339-17.2606,1.9734l.0225-.5996c2.7262-.7758,5.2463-1.5593,7.577-2.6027,12.4973-5.4626,18.291-17.1492,9.9866-29.104-2.9958-4.2232-7.3464-7.6445-12.0698-10.2284l.22-.5582h0Z"/>
              </g>
            </g>
          </g>
          <g id="planet6">
            <g id="halo-4" data-name="halo" class="cls-37">
              <path class="cls-20" d="M189.6965,529.5685c-39.0615,0-67.4126-25.7061-67.4126-61.123,0-17.9951,7.2144-37.9775,19.2988-53.4531,13.3628-17.1143,30.4497-26.5391,48.1138-26.5391,37.1953,0,73.7021,36.5068,73.7021,73.7021,0,17.8057-8.2222,34.8213-23.1523,47.9141-14.1304,12.3916-32.5552,19.499-50.5498,19.499Z"/>
              <path class="cls-28" d="M189.6965,393.9531c34.1934,0,68.2023,34.0089,68.2023,68.2023s-34.0089,61.9128-68.2023,61.9128-61.9127-21.4296-61.9127-55.623,27.7192-74.492,61.9127-74.492M189.6965,382.9531c-41.0628,0-72.9127,45.9569-72.9127,85.492,0,38.604,30.6642,66.623,72.9127,66.623,19.31,0,39.0565-7.6044,54.1763-20.8634,16.1383-14.1522,25.026-32.637,25.026-52.0494,0-19.1934-8.9301-39.1315-24.5004-54.7018-15.5704-15.5704-35.5085-24.5005-54.7019-24.5005h0Z"/>
            </g>
            <g id="planet-6" data-name="planet">
              <path class="cls-24" d="M243.5996,461.859c0,26.4599-27.1469,47.9098-53.6068,47.9098s-47.9098-15.753-47.9098-42.2129,21.45-59.3037,47.9098-59.3037,53.6068,27.1469,53.6068,53.6068Z"/>
              <g class="cls-19">
                <circle class="cls-6" cx="199.9763" cy="511.6918" r="79.4832"/>
                <circle class="cls-17" cx="211.0933" cy="522.7808" r="52.3081"/>
                <ellipse class="cls-3" cx="171.9019" cy="466.0582" rx="7.5399" ry="8.9536"/>
                <ellipse class="cls-3" cx="209.7431" cy="456.8324" rx="2.8275" ry="3.2987"/>
                <ellipse class="cls-3" cx="200.2031" cy="461.6797" rx="2.5133" ry="2.1991"/>
                <ellipse class="cls-3" cx="175.5414" cy="507.5697" rx="8.0112" ry="7.8541"/>
                <ellipse class="cls-3" cx="200.1654" cy="493.4324" rx="4.5554" ry="4.0841"/>
                <ellipse class="cls-3" cx="179.2948" cy="439.7336" rx="6.1262" ry="7.3828"/>
                <path d="M196.5432,419.0109c20.5251,7.9027,39.2995,25.2263,37.4964,48.9252-.5285,11.4038-6.5093,22.9582-16.4422,28.9526-9.7366,6.1374-21.5132,7.9966-32.1712,5.9543l.0225-.5996c19.7377-2.0126,41.2918-13.2378,43.8133-34.7198,2.051-16.0844-6.9496-30.1429-19.4435-39.599-4.1945-3.2092-8.7181-6.0866-13.4953-8.3555,0,0,.22-.5581.22-.5581h0Z"/>
              </g>
            </g>
          </g>
        </g>
      </g>
    </g>
  </g>
</svg>