<?xml version="1.0" encoding="UTF-8"?>
<svg id="Capa_2" data-name="Capa 2" xmlns="http://www.w3.org/2000/svg" width="71.1092" height="123.9332" xmlns:xlink="http://www.w3.org/1999/xlink" viewBox="0 0 71.1092 123.9332">
  <defs>
    <style>
      .cls-1 {
        fill: #ffaf80;
      }

      .cls-2 {
        fill: #f73;
      }

      .cls-3 {
        fill: #ffe875;
      }

      .cls-4 {
        fill: #fa3;
      }

      .cls-5 {
        fill: #ffdd80;
      }

      .cls-6 {
        clip-path: url(#clippath);
      }
    </style>
    <clipPath id="clippath">
      <polygon class="cls-5" points="0 89.9322 34.718 0 71.1092 89.0956 40.5741 80.7298 35.5546 36.8095 30.1168 82.8213 0 89.9322"/>
    </clipPath>
  </defs>
  <g id="Capa_6" data-name="Capa 6">
    <g id="ship_space">
      <g id="ship">
        <polygon class="cls-5" points="0 89.9322 34.718 0 71.1092 89.0956 40.5741 80.7298 35.5546 36.8095 30.1168 82.8213 0 89.9322"/>
        <g class="cls-6">
          <polygon class="cls-1" points="-12.1198 60.2164 34.936 52.9992 82.8579 62.8146 45.6174 -17.1514 22.8112 -23.7912 -12.1198 60.2164"/>
        </g>
      </g>
      <g id="fire">
        <polygon class="cls-2" points="29.707 94.9702 26.0085 115.2912 31.9677 111.0932 33.636 123.4515 35.563 123.9332 38.1898 112.1498 45.1175 115.2912 41.4971 94.8611 35.3837 92.3502 29.707 94.9702"/>
        <polygon class="cls-4" points="31.7091 95.7807 28.658 110.7147 33.156 108.1712 35.1615 118.6634 37.3206 108.4336 42.1467 111.357 39.3366 95.7005 35.4501 94.1303 31.7091 95.7807"/>
        <polygon class="cls-3" points="33.5578 96.5414 32.1527 101.1933 35.2914 109.2703 38.5975 101.4026 37.3002 96.6317 35.417 95.5855 33.5578 96.5414"/>
      </g>
      <path id="engine" class="cls-1" d="M25.8507,96.4602l-2.0977-6.0721,12.0928-3.923,11.8278,3.5541-2.0795,6.6878c-6.7365-3.8254-13.334-4.3022-19.7433-.2468Z"/>
      <path d="M27.2002,79.5827c-5.9222,1.6811-15.9233,4.5419-21.8467,6.1761,0,0,.7505-2.1561.7505-2.1561,3.544-10.2617,8.9545-25.0766,12.7159-35.4386,2.1426-5.8972,4.0059-11.9057,6.383-17.7093,2.9243-7.2846,6.5096-14.5133,10.0697-21.5393,0,0,1.7331,4.2391,1.7331,4.2391,2.1,5.1287,4.3125,10.6734,5.9798,15.9479,0,0-.5353.271-.5353.271-2.4361-3.3399-4.8894-7.1344-7.0995-10.6368,0,0-2.2173-3.6211-2.2173-3.6211l3.9519-.1764c-1.8206,6.0256-3.7944,11.9901-6.0905,17.826-4.1479,10.0623-10.7898,24.312-15.0745,34.4979-2.5316,5.7419-5.0668,11.4824-7.6502,17.2038l-1.3528-1.5663c5.0202-1.01,15.1173-2.9415,20.1441-3.9014,0,0,.1388.5837.1388.5837h0Z"/>
      <path d="M47.0645,40.6522c3.4035,6.449,6.8904,13.6191,9.9501,20.2624,1.5677,3.4023,3.6232,6.6244,4.5544,10.2912.9986,3.7482,1.6927,7.4878,1.4699,11.4638,0,0-.5609.2132-.5609.2132-4.0105-4.2132-6.9043-9.2658-8.4863-14.8076-.766-3.1852-2.1147-7.6772-3.0821-10.8509-1.4935-5.2635-3.1188-11.062-4.406-16.3588,0,0,.5608-.2132.5608-.2132h0Z"/>
    </g>
  </g>
</svg>