<?xml version="1.0" encoding="UTF-8"?><svg id="Capa_1_copia" xmlns="http://www.w3.org/2000/svg" viewBox="0 0 256 256"><defs><style>.cls-1{fill:gray;}.cls-2{fill:none;stroke:gray;stroke-linecap:round;stroke-linejoin:round;stroke-width:10px;}</style></defs><circle class="cls-1" cx="100.63" cy="193.5" r="8.69"/><circle class="cls-1" cx="62.33" cy="154.96" r="8.69"/><circle class="cls-1" cx="62.51" cy="100.63" r="8.69"/><circle class="cls-1" cx="101.04" cy="62.33" r="8.69"/><circle class="cls-1" cx="155.37" cy="62.51" r="8.69"/><circle class="cls-1" cx="193.67" cy="101.04" r="8.69"/><circle class="cls-1" cx="193.5" cy="155.37" r="8.69"/><circle class="cls-1" cx="154.96" cy="193.67" r="8.69"/><path class="cls-1" d="M212.66,50.39l-54.92,65.3,85.01,7.33c6.09.53,6.09,9.44,0,9.96l-85.01,7.33,54.92,65.3c3.94,4.68-2.36,10.98-7.04,7.04l-65.3-54.92-7.33,85.01c-.53,6.09-9.44,6.09-9.96,0l-7.33-85.01-65.3,54.92c-4.68,3.94-10.98-2.36-7.04-7.04l54.92-65.3-85.01-7.33c-6.09-.53-6.09-9.44,0-9.96l85.01-7.33L43.34,50.39c-3.94-4.68,2.36-10.98,7.04-7.04l65.3,54.92,7.33-85.01c.53-6.09,9.44-6.09,9.96,0l7.33,85.01,65.3-54.92c4.68-3.94,10.98,2.36,7.04,7.04Z"/><line class="cls-2" x1="174.59" y1="81.86" x2="221.84" y2="76.84"/><line class="cls-2" x1="174.14" y1="81.41" x2="179.16" y2="34.16"/><path class="cls-1" d="M242.74,132.98l-85.01,7.33,54.92,65.3c3.94,4.68-2.36,10.98-7.04,7.04l-65.3-54.92-7.33,85.01c-.53,6.09-9.44,6.09-9.96,0l-7.33-85.01-65.3,54.92c-4.68,3.94-10.98-2.36-7.04-7.04l54.92-65.3-85.01-7.33c-6.09-.53-6.09-9.44,0-9.96l85.01-7.33L43.34,50.39c-3.94-4.68,2.36-10.98,7.04-7.04l65.3,54.92,7.33-85.01c.53-6.09,9.44-6.09,9.96,0l7.33,85.01,65.3-54.92c4.68-3.94,10.98,2.36,7.04,7.04l-54.92,65.3,85.01,7.33c6.09.53,6.09,9.44,0,9.96Z"/><line class="cls-2" x1="193.57" y1="128.32" x2="230.53" y2="158.18"/><line class="cls-2" x1="193.57" y1="127.68" x2="230.53" y2="97.82"/><path class="cls-1" d="M205.61,212.66l-65.3-54.92-7.33,85.01c-.53,6.09-9.44,6.09-9.96,0l-7.33-85.01-65.3,54.92c-4.68,3.94-10.98-2.36-7.04-7.04l54.92-65.3-85.01-7.33c-6.09-.53-6.09-9.44,0-9.96l85.01-7.33L43.34,50.39c-3.94-4.68,2.36-10.98,7.04-7.04l65.3,54.92,7.33-85.01c.53-6.09,9.44-6.09,9.96,0l7.33,85.01,65.3-54.92c4.68-3.94,10.98,2.36,7.04,7.04l-54.92,65.3,85.01,7.33c6.09.53,6.09,9.44,0,9.96l-85.01,7.33,54.92,65.3c3.94,4.68-2.36,10.98-7.04,7.04Z"/><line class="cls-2" x1="174.14" y1="174.59" x2="179.16" y2="221.84"/><line class="cls-2" x1="174.59" y1="174.14" x2="221.84" y2="179.16"/><path class="cls-1" d="M123.02,242.74l-7.33-85.01-65.3,54.92c-4.68,3.94-10.98-2.36-7.04-7.04l54.92-65.3-85.01-7.33c-6.09-.53-6.09-9.44,0-9.96l85.01-7.33L43.34,50.39c-3.94-4.68,2.36-10.98,7.04-7.04l65.3,54.92,7.33-85.01c.53-6.09,9.44-6.09,9.96,0l7.33,85.01,65.3-54.92c4.68-3.94,10.98,2.36,7.04,7.04l-54.92,65.3,85.01,7.33c6.09.53,6.09,9.44,0,9.96l-85.01,7.33,54.92,65.3c3.94,4.68-2.36,10.98-7.04,7.04l-65.3-54.92-7.33,85.01c-.53,6.09-9.44,6.09-9.96,0Z"/><line class="cls-2" x1="127.68" y1="193.57" x2="97.82" y2="230.53"/><line class="cls-2" x1="128.32" y1="193.57" x2="158.18" y2="230.53"/><path class="cls-1" d="M43.34,205.61l54.92-65.3-85.01-7.33c-6.09-.53-6.09-9.44,0-9.96l85.01-7.33L43.34,50.39c-3.94-4.68,2.36-10.98,7.04-7.04l65.3,54.92,7.33-85.01c.53-6.09,9.44-6.09,9.96,0l7.33,85.01,65.3-54.92c4.68-3.94,10.98,2.36,7.04,7.04l-54.92,65.3,85.01,7.33c6.09.53,6.09,9.44,0,9.96l-85.01,7.33,54.92,65.3c3.94,4.68-2.36,10.98-7.04,7.04l-65.3-54.92-7.33,85.01c-.53,6.09-9.44,6.09-9.96,0l-7.33-85.01-65.3,54.92c-4.68,3.94-10.98-2.36-7.04-7.04Z"/><line class="cls-2" x1="81.41" y1="174.14" x2="34.16" y2="179.16"/><line class="cls-2" x1="81.86" y1="174.59" x2="76.84" y2="221.84"/><path class="cls-1" d="M13.26,123.02l85.01-7.33L43.34,50.39c-3.94-4.68,2.36-10.98,7.04-7.04l65.3,54.92,7.33-85.01c.53-6.09,9.44-6.09,9.96,0l7.33,85.01,65.3-54.92c4.68-3.94,10.98,2.36,7.04,7.04l-54.92,65.3,85.01,7.33c6.09.53,6.09,9.44,0,9.96l-85.01,7.33,54.92,65.3c3.94,4.68-2.36,10.98-7.04,7.04l-65.3-54.92-7.33,85.01c-.53,6.09-9.44,6.09-9.96,0l-7.33-85.01-65.3,54.92c-4.68,3.94-10.98-2.36-7.04-7.04l54.92-65.3-85.01-7.33c-6.09-.53-6.09-9.44,0-9.96Z"/><line class="cls-2" x1="62.43" y1="127.68" x2="25.47" y2="97.82"/><line class="cls-2" x1="62.43" y1="128.32" x2="25.47" y2="158.18"/><path class="cls-1" d="M50.39,43.34l65.3,54.92,7.33-85.01c.53-6.09,9.44-6.09,9.96,0l7.33,85.01,65.3-54.92c4.68-3.94,10.98,2.36,7.04,7.04l-54.92,65.3,85.01,7.33c6.09.53,6.09,9.44,0,9.96l-85.01,7.33,54.92,65.3c3.94,4.68-2.36,10.98-7.04,7.04l-65.3-54.92-7.33,85.01c-.53,6.09-9.44,6.09-9.96,0l-7.33-85.01-65.3,54.92c-4.68,3.94-10.98-2.36-7.04-7.04l54.92-65.3-85.01-7.33c-6.09-.53-6.09-9.44,0-9.96l85.01-7.33L43.34,50.39c-3.94-4.68,2.36-10.98,7.04-7.04Z"/><line class="cls-2" x1="81.86" y1="81.41" x2="76.84" y2="34.16"/><line class="cls-2" x1="81.41" y1="81.86" x2="34.16" y2="76.84"/><path class="cls-1" d="M132.98,13.26l7.33,85.01,65.3-54.92c4.68-3.94,10.98,2.36,7.04,7.04l-54.92,65.3,85.01,7.33c6.09.53,6.09,9.44,0,9.96l-85.01,7.33,54.92,65.3c3.94,4.68-2.36,10.98-7.04,7.04l-65.3-54.92-7.33,85.01c-.53,6.09-9.44,6.09-9.96,0l-7.33-85.01-65.3,54.92c-4.68,3.94-10.98-2.36-7.04-7.04l54.92-65.3-85.01-7.33c-6.09-.53-6.09-9.44,0-9.96l85.01-7.33L43.34,50.39c-3.94-4.68,2.36-10.98,7.04-7.04l65.3,54.92,7.33-85.01c.53-6.09,9.44-6.09,9.96,0Z"/><line class="cls-2" x1="128.32" y1="62.43" x2="158.18" y2="25.47"/><line class="cls-2" x1="127.68" y1="62.43" x2="97.82" y2="25.47"/></svg>