<?xml version="1.0" encoding="UTF-8"?>
<svg id="Capa_2" data-name="Capa 2" xmlns="http://www.w3.org/2000/svg" xmlns:xlink="http://www.w3.org/1999/xlink" viewBox="0 0 512 512">
  <defs>
    <style>
      .cls-1 {
        fill: #05ada7;
      }

      .cls-2 {
        clip-path: url(#clippath-6);
      }

      .cls-3 {
        fill: #048a85;
      }

      .cls-4 {
        clip-path: url(#clippath-4);
      }

      .cls-5 {
        fill: none;
      }

      .cls-6 {
        clip-path: url(#clippath-1);
      }

      .cls-7 {
        clip-path: url(#clippath-5);
      }

      .cls-8 {
        fill: #e6c3a1;
      }

      .cls-9 {
        clip-path: url(#clippath-3);
      }

      .cls-10 {
        fill: #fec;
      }

      .cls-11 {
        fill: #7c161d;
      }

      .cls-12 {
        fill: #cc957a;
      }

      .cls-13 {
        clip-path: url(#clippath-2);
      }

      .cls-14 {
        fill: #993d3d;
      }

      .cls-15 {
        fill: #037571;
      }

      .cls-16 {
        clip-path: url(#clippath);
      }

      .cls-17 {
        fill: #b3685a;
      }
    </style>
    <clipPath id="clippath">
      <polygon class="cls-8" points="55.18 123.99 55.18 409.32 154.91 412.61 153.42 391.47 108.69 322.24 108.69 123.99 55.18 123.99"/>
    </clipPath>
    <clipPath id="clippath-1">
      <polygon class="cls-8" points="123.88 78.24 100.37 123.77 119.67 124.11 141.22 78.24 123.88 78.24"/>
    </clipPath>
    <clipPath id="clippath-2">
      <polygon class="cls-8" points="259.75 82.14 240.5 125.54 263.11 125.81 278.99 82.14 259.75 82.14"/>
    </clipPath>
    <clipPath id="clippath-3">
      <rect class="cls-5" width="512" height="512"/>
    </clipPath>
    <clipPath id="clippath-4">
      <rect class="cls-5" x="129.43" y="141.73" width="187.03" height="163.85"/>
    </clipPath>
    <clipPath id="clippath-5">
      <polygon class="cls-8" points="153.42 391.47 373.93 391.47 335.43 322.24 108.69 322.24 153.42 391.47"/>
    </clipPath>
    <clipPath id="clippath-6">
      <polygon class="cls-17" points="153.42 391.47 154.91 412.61 373.95 411 373.93 391.47 153.42 391.47"/>
    </clipPath>
  </defs>
  <g id="Services_Graphic">
    <g id="PC">
      <polygon class="cls-14" points="55.75 162.29 34.55 180.68 34.55 271.85 57.75 295.73 55.75 162.29"/>
      <g>
        <polygon class="cls-8" points="55.18 123.99 55.18 409.32 154.91 412.61 153.42 391.47 108.69 322.24 108.69 123.99 55.18 123.99"/>
        <g class="cls-16">
          <polygon class="cls-12" points="35.82 85.82 75.75 94.85 73.61 325.89 90.07 422.16 31.62 419.67 35.82 85.82"/>
          <polygon class="cls-10" points="124.17 422.69 91.37 322.82 93.21 108.16 119.75 102.45 127.75 325.89 179.56 425.89 124.17 422.69"/>
        </g>
      </g>
      <g id="eir">
        <polygon class="cls-11" points="118.47 126.67 141.22 78.24 163.97 126.67 118.47 126.67"/>
        <polygon class="cls-11" points="262.06 128.7 278.99 82.14 307.56 128.7 262.06 128.7"/>
        <polyline class="cls-10" points="127.75 123.98 141.22 98.5 153.6 123.98"/>
        <polyline class="cls-10" points="272.03 126.67 281.52 100.02 295.38 126.67"/>
        <g>
          <polygon class="cls-8" points="123.88 78.24 100.37 123.77 119.67 124.11 141.22 78.24 123.88 78.24"/>
          <g class="cls-6">
            <polygon class="cls-10" points="108.69 64.53 134.38 113.34 163.12 67.34 108.69 64.53"/>
            <polygon class="cls-12" points="95.23 160.85 120.79 149.17 130.67 125.81 98.64 98.5 95.23 160.85"/>
          </g>
        </g>
        <g>
          <polygon class="cls-8" points="259.75 82.14 240.5 125.54 263.11 125.81 278.99 82.14 259.75 82.14"/>
          <g class="cls-13">
            <polygon class="cls-10" points="235.58 74.35 278.41 122.76 311.65 85.48 302.93 68.94 235.58 74.35"/>
            <polygon class="cls-12" points="216.93 105.42 215.95 152.58 273.88 151.6 278.22 131.74 216.93 105.42"/>
          </g>
        </g>
      </g>
      <g id="screen">
        <g class="cls-9">
          <polygon class="cls-17" points="108.69 322.24 108.69 123.98 335.43 126.67 335.43 322.24 108.69 322.24"/>
          <polygon class="cls-14" points="118.47 311.76 124.92 137 325.93 132.36 322.56 311.76 118.47 311.76"/>
          <rect class="cls-3" x="129.43" y="141.73" width="187.03" height="163.85"/>
          <g class="cls-4">
            <polygon class="cls-15" points="105.56 154.28 341.59 176.77 341.59 204 93.66 201.23 105.56 154.28"/>
            <polygon class="cls-15" points="99.95 257.83 100.81 227.2 332.96 218.51 332.96 234.42 99.95 257.83"/>
            <polygon class="cls-15" points="101.67 284.48 100.81 275.93 330.43 274.64 330.43 296.45 101.67 284.48"/>
            <polygon class="cls-1" points="346.34 163.45 38.67 123.04 57.66 87.08 346.34 111.27 346.34 163.45"/>
            <polygon class="cls-1" points="32.2 271.75 339.78 266 339.78 254.23 31.34 258.66 32.2 271.75"/>
            <polygon class="cls-1" points="36.08 211.78 235 208.16 23.57 231.45 36.08 211.78"/>
          </g>
        </g>
      </g>
      <g id="keyboard">
        <g>
          <polygon class="cls-8" points="153.42 391.47 373.93 391.47 335.43 322.24 108.69 322.24 153.42 391.47"/>
          <g class="cls-7">
            <polygon class="cls-10" points="93.71 318.53 359.11 346.63 346.53 309.19 92.19 302.35 93.71 318.53"/>
            <polygon class="cls-12" points="141.47 422.26 113.93 356.85 379.26 385.12 388.74 407.09 141.47 422.26"/>
          </g>
        </g>
        <g>
          <polygon class="cls-17" points="153.42 391.47 154.91 412.61 373.95 411 373.93 391.47 153.42 391.47"/>
          <g class="cls-2">
            <polygon class="cls-14" points="145.34 400.11 380.98 405.05 405.8 420.8 141.47 422.26 145.34 400.11"/>
          </g>
        </g>
        <g>
          <path class="cls-14" d="M166.85,387.35c16-1.88,32.05-2.59,48.13-3.01,16.06-.62,32.13.91,48.18,1.04,24.1.07,48.12-2.63,72.22-3.03,8.03-.25,16.05-.5,24.08-.52l-2.74,4.78c-7-12.72-13.9-25.99-20.19-39.08-2.12-4.41-4.2-8.85-6.15-13.36l.52-.29c2.86,3.99,5.6,8.06,8.29,12.15,8.98,13.64,17.65,27.93,25.79,42.07-17.85.5-35.75.29-53.61.01-16.05-.45-32.12-1.39-48.18-.8-8.02.26-16.04.9-24.06,1.48-16.04,1.18-32.1,1-48.16.56-8.03-.26-16.07-.63-24.1-1.39v-.6Z"/>
          <path class="cls-14" d="M139.31,339.43c11.54-1.1,23.4-1.44,34.99-1.57,11.68-.27,23.33.89,34.99,1.12,15.56.33,31.1-1.12,46.65-1.23,23.34-.55,46.69-.19,69.98,1.68v.4c-23.29,1.87-46.64,2.24-69.98,1.68-15.56-.12-31.1-1.56-46.65-1.23-11.66.23-23.31,1.4-34.99,1.12-2.88-.02-8.78-.13-11.66-.22-7.78-.25-15.55-.59-23.33-1.35v-.4Z"/>
          <path class="cls-14" d="M149.72,357.81c22.97-.19,69.08-.38,92.04-.37,30.69-.32,61.39-.1,92.01,2.43v.4c-7.68.46-15.35.77-23.02.95-23.01.73-46.02.12-69.02-.58-22.91-.51-69.1-1.73-92.01-2.43,0,0,0-.4,0-.4"/>
          <path class="cls-14" d="M161.76,376.86c11.21-.92,22.7-1.07,33.94-1.02,11.32-.09,22.6,1.26,33.9,1.67,15.08.57,30.16-.63,45.24-.5,22.63-.19,45.26.54,67.8,2.78v.4c-22.61,1.5-45.24,1.5-67.86.58-15.08-.36-30.11-2.04-45.2-1.96-11.31.05-22.62,1.03-33.93.57-2.79-.07-8.5-.27-11.3-.4-7.53-.37-15.06-.83-22.59-1.71v-.4Z"/>
          <path class="cls-14" d="M279.6,335.63c3.11,3.19,5.54,7,7.2,11.11.75,2.08,1.15,4.33,2.03,6.34,1.24,3.07,3.41,5.68,5.27,8.4,2.97,4.64,5.63,9.46,7.33,14.72.7,2.1,1.34,4.23,1.71,6.5l-.36.18c-4.53-4.94-7.88-10.71-10.34-16.9-1.85-4-2.51-8.53-4.77-12.33-1.09-1.91-2.64-3.58-3.86-5.43-1.77-2.8-2.96-5.92-3.87-9.1-.3-1.07-.56-2.17-.7-3.33l.36-.18Z"/>
          <path class="cls-14" d="M191.31,330.03c5.32,8.43,10.53,16.91,15.63,25.47,3.99,6.33,7.9,12.7,10.63,19.7.96,2.31,1.85,4.66,2.54,7.12l-.35.19c-6.66-7.57-11.4-16.41-15.63-25.47-4.51-8.88-8.9-17.82-13.17-26.82l.35-.19"/>
          <path class="cls-14" d="M161.93,333.92c5.51,8.2,10.92,16.46,16.22,24.79,4.14,6.16,8.19,12.36,11.09,19.22,1.01,2.27,1.96,4.57,2.71,6.99l-.35.2c-6.82-7.3-11.78-15.93-16.22-24.79-4.72-8.67-9.32-17.42-13.81-26.21l.35-.2"/>
          <path class="cls-14" d="M223.12,334.24c4.67,7.61,9.24,15.28,13.69,23.02,3.51,5.72,6.93,11.47,9.17,17.85.79,2.1,1.51,4.24,2.04,6.48l-.35.19c-6.02-6.77-10.12-14.79-13.69-23.02-3.86-8.05-7.59-16.16-11.21-24.32l.35-.19"/>
          <path class="cls-14" d="M249.76,333.94c3.25,3.53,5.8,7.67,7.59,12.1.81,2.24,1.28,4.65,2.22,6.83,1.34,3.31,3.61,6.17,5.57,9.14,1.86,3.04,3.66,6.12,5.18,9.33,1.92,4.33,3.6,8.79,4.54,13.61l-.36.18c-4.79-5.54-8.26-11.69-10.92-18.38-1.97-4.32-2.76-9.18-5.15-13.3-1.15-2.07-2.78-3.91-4.05-5.92-1.86-3.05-3.15-6.41-4.16-9.83-.33-1.15-.62-2.33-.79-3.57l.36-.18Z"/>
          <path class="cls-14" d="M158.74,388.56c-13.37-18.58-25.95-37.71-37.98-57.17l-1.6-2.65c9.72.1,19.45.4,29.16.62,26.15.72,52.26-1.27,78.39-1.68,30.41-.81,61.05-.77,91.47.2,4.36.18,8.72.3,13.07.54v.4c-25.99,1.63-52.35,2.42-78.38,2.63-34.85.55-69.7-1.58-104.54-.32-8.71.36-17.42.78-26.13,1.05l1.42-2.61c1.58,2.38,3.13,4.79,4.66,7.2,7.66,12.08,15.11,24.28,22.31,36.63,2.88,4.94,5.73,9.91,8.46,14.95l-.34.21Z"/>
          <path class="cls-14" d="M295.41,349.42c4.75-.74,9.51-1.33,14.28-1.8,4.76-.26,9.54-1.72,14.28-.51l1.93.38c.88,2.44,1.57,4.88,1.6,7.56l-.51.31c-2.06-1.14-3.72-2.62-5.26-4.29l2.24,1.27c-4.75,1.21-9.52-.26-14.28-.51-4.77-.48-9.53-1.06-14.28-1.8v-.6Z"/>
          <path class="cls-14" d="M306.31,369.63c1.74-1.79,3.98-2.81,6.24-2.2,1.04.39,2.08,1.36,3.12,1.54,1.04.21,2.08-.1,3.12-.68,4.03-2.35,9.02-2.04,12.48,1.34,0,0,0,.6,0,.6-3.06,2.95-7.1,3.57-10.92,2.11-1.46-.63-3.08-1.85-4.68-1.45-1.53.31-2.95,2.06-4.68,1.71-1.83-.26-3.18-.8-4.68-2.37v-.6"/>
        </g>
      </g>
      <g id="boca">
        <polygon points="237.56 249.92 223.33 274.49 206.73 249.92 237.56 249.92"/>
        <path d="M186.01,268.1c9.42,6.75,17.7,15.05,23.92,24.83l-2.49.12c1.45-1.51,2.89-3.02,4.2-4.63,4.51-5.43,7.74-11.74,11.27-17.82l2.18,1.86c5.8,5.07,11.68,10.64,16.89,16.3l-4.64.04c6.23-6.3,12.69-12.25,19.97-17.39l.44.41c-2.25,3.9-4.82,7.5-7.44,11.04-3.27,4.38-6.82,8.66-10.47,12.73-6.37-6.18-12.43-13.12-17.95-20.07l3.38-.21c-2.84,3.06-5.78,6.04-8.38,9.27-3.02,3.66-5.48,7.73-7.71,11.91-2.71-2.35-5.61-4.64-8.13-7.17-4.03-4.11-7.57-8.65-10.9-13.36-1.64-2.39-3.21-4.83-4.58-7.46l.45-.4Z"/>
      </g>
      <g id="eyes">
        <path d="M139.45,162.96c.61,14.01,1.35,34.27,1.62,48l-1.79-1.76c21.86-.95,53.42-1.05,75.61-1.14l-1.56,1.69-2.37-44.26,1.07,1.04-72.58-3.57ZM139.17,162.67c22.03.59,52.16,1.05,73.94,1.67l.08,1.01,3.32,44.2.12,1.64c-14.2.32-44.55,1.48-58.38,1.48-6.91.07-13.82.05-20.73.06l.03-1.77c.14-14.22,1.09-33.96,1.62-48.29"/>
        <path d="M233.07,165.36l.81,44.33-.94-.99c17.93.76,53.98,2.38,71.9,3.2l-2.09,2.07c-.57-8.58-2.01-30.37-2.53-38.66-.26-4.3-.46-8.6-.67-12.89l2.69,2.46c-23.23.76-45.63.67-69.19.48M232.71,165.01c19.5-1.9,40.52-3.65,60.45-4.84,1.78-.08,9.78-.53,11.43-.61.27,5.15.56,10.34.77,15.49.35,9.5,1.09,31.24,1.42,40.94l-2.16-.15c-18.38-1.31-54.36-3.87-72.74-5.23l.02-.92.81-44.68Z"/>
        <polygon id="EYE01" points="189.26 177 189.26 198.53 197.21 198.53 199.87 175.25 189.26 177"/>
        <polygon id="EYE02" points="278.41 175.12 279.33 196.65 285.74 198.65 289 176.12 278.41 175.12"/>
      </g>
    </g>
  </g>
</svg>