<?xml version="1.0" encoding="UTF-8"?>
<svg id="Capa_2" data-name="Capa 2" xmlns="http://www.w3.org/2000/svg" xmlns:xlink="http://www.w3.org/1999/xlink" viewBox="0 0 68.88 32.08">
  <defs>
    <style>
      .cls-1 {
        fill: #05ada7;
      }

      .cls-2 {
        fill: #048a85;
      }

      .cls-3 {
        fill: #037571;
      }

      .cls-4 {
        clip-path: url(#clippath);
      }
    </style>
    <clipPath id="clippath">
      <polygon class="cls-2" points="0 0 0 32.08 68.88 32.08 68.88 16.4 51.31 0 0 0"/>
    </clipPath>
  </defs>
  <g id="Services_Graphic">
    <g id="mouse">
      <g>
        <polygon class="cls-2" points="0 0 0 32.08 68.88 32.08 68.88 16.4 51.31 0 0 0"/>
        <g class="cls-4">
          <polygon class="cls-1" points="-14.1 -11.6 -12.88 17.12 83.26 17.65 83.26 -11.6 -14.1 -11.6"/>
        </g>
      </g>
      <path class="cls-3" d="M3.59,15.74c9.41-.87,19.74-1.61,29.21-2.1,2.43-.13,4.87-.37,7.3-.57,4.89-.41,9.76.04,14.6.85,2.43.44,4.87.96,7.3,1.82v.6c-7.1,2.29-14.51,3.15-21.91,2.67-4.22-.42-10.31-.75-14.6-.97-7.08-.48-14.88-1.04-21.9-1.7v-.6"/>
      <path class="cls-3" d="M39.18,3.07c.68,1.68,1.21,3.54,1.69,5.27.23,1.07.56,2.5.98,3.51.63,2.09-1.02,4.08-2.67,5.27h-.6c-1.65-1.19-3.3-3.18-2.67-5.27.41-1.01.75-2.45.98-3.51.48-1.73,1.02-3.58,1.7-5.27h.6Z"/>
    </g>
  </g>
</svg>