<?xml version="1.0" encoding="UTF-8"?>
<svg id="Capa_2" data-name="Capa 2" xmlns="http://www.w3.org/2000/svg" viewBox="0 0 108.26 199.38">
  <defs>
    <style>
      .cls-1 {
        fill: #512975;
      }

      .cls-2 {
        fill: #7e43b3;
      }

      .cls-3 {
        fill: #9666c4;
      }

      .cls-4 {
        fill: #81519c;
      }

      .cls-5 {
        fill: #5883d9;
      }

      .cls-6 {
        fill: #87a2d9;
      }

      .cls-7 {
        fill: #501a99;
      }

      .cls-8 {
        fill: #7d4ba6;
      }
    </style>
  </defs>
  <g id="Services_Graphic">
    <g id="windmill">
      <g>
        <polygon class="cls-5" points="47.88 53.94 47.28 188.05 55.44 184.12 55.44 58.64 47.88 53.94"/>
        <polygon class="cls-2" points="32.32 199.38 72.75 199.38 61.08 179.53 39.32 177.1 32.32 199.38"/>
        <path class="cls-7" d="M43.41,182.57c-.07,3.85-.27,7.67-.53,11.49l-1.9-2.26,5.22-.61c3.5-.61,6.94-1.15,10.45-.14,1.83.45,3.58,1.06,5.25,2.09v.6c-3.12,1.95-6.79,2.91-10.4,2.96-3.04-.25-7.13-.86-10.46-1.07l-2.54-.23c1.35-4.32,2.74-8.66,4.33-12.92l.59.11"/>
      </g>
      <g id="flor">
        <polygon class="cls-1" points="37.78 0 51.21 31.44 22.12 27.79 37.78 0"/>
        <polygon class="cls-4" points="56.12 42.96 55.99 43.69 39.78 52.97 21.36 29.14 22.12 27.79 51.21 31.44 56.12 42.96"/>
        <polygon class="cls-1" points="108.26 35.65 71.12 57.14 66.82 59.63 58.04 44.74 85.48 24 85.99 23.61 108.26 35.65"/>
        <polygon class="cls-4" points="85.48 24 71.12 57.14 66.82 59.63 58.04 44.74 85.48 24"/>
        <polygon class="cls-8" points="100.9 75.96 69.88 68.65 65.15 67.54 65.15 54.84 96.24 50 96.51 51.52 100.9 75.96"/>
        <polygon class="cls-3" points="96.51 51.52 69.88 68.65 65.15 67.54 65.15 54.84 96.24 50 96.51 51.52"/>
        <polygon class="cls-1" points="47 72.48 23.5 90.71 22.15 89.86 0 75.96 33.18 62.76 37.06 61.21 47 72.48"/>
        <polygon class="cls-4" points="47 72.48 23.5 90.71 22.15 89.86 33.18 62.76 37.06 61.21 47 72.48"/>
        <polygon class="cls-8" points="60.23 74.32 57.64 102.81 57.3 102.85 30.97 105.75 40.81 77.84 42.7 72.48 60.23 74.32"/>
        <polygon class="cls-3" points="60.23 74.32 57.64 102.81 57.3 102.85 40.81 77.84 42.7 72.48 60.23 74.32"/>
        <polygon class="cls-8" points="84.99 6.21 64.95 42.24 62.62 46.43 46.38 42.74 56.04 11.57 57.96 11.21 84.99 6.21"/>
        <polygon class="cls-3" points="64.95 42.24 62.62 46.43 46.38 42.74 56.04 11.57 57.96 11.21 64.95 42.24"/>
        <polygon class="cls-8" points="39.78 48.89 37.06 65.67 12.38 62.54 11.93 60.53 5.22 30.81 34.31 46.03 39.78 48.89"/>
        <polygon class="cls-3" points="39.78 48.89 37.06 65.67 12.38 62.54 11.93 60.53 34.31 46.03 39.78 48.89"/>
        <polygon class="cls-1" points="85.11 79.61 84.5 80.48 67.6 104.37 57.4 78.39 55.44 73.4 65.69 61.8 85.11 79.61"/>
        <polygon class="cls-4" points="85.11 79.61 84.5 80.48 57.4 78.39 55.44 73.4 65.69 61.8 85.11 79.61"/>
        <path class="cls-5" d="M70.49,58.82c0,10.36-8.4,18.76-18.76,18.76s-18.76-8.4-18.76-18.76,8.4-18.76,18.76-18.76,18.76,8.4,18.76,18.76"/>
        <path class="cls-6" d="M45.69,45.51c-10.3,4.17-9.76,17.32-1.32,23.11,5.55,3.47,13.21,1.27,17.75-3.03,1.69-1.6,3.09-3.62,4.41-6.02l.59.1c1.33,9.29-7.8,18.06-17.15,16.56-12.18-1.43-20.1-17.67-11.51-27.23,1.84-2.12,4.37-3.44,7.06-4.07l.17.57"/>
      </g>
    </g>
  </g>
</svg>